<svg xmlns="http://www.w3.org/2000/svg" width="106.377" height="109.6" viewBox="0 0 106.377 109.6">
  <path id="admin-person" d="M16.86,8.025a26.592,26.592,0,0,1,38.075,0,27.745,27.745,0,0,1,0,38.75,27.064,27.064,0,0,1-2.887,2.548,34.5,34.5,0,0,1,9.577,6.935l2.271,2.334L56.732,73.071a15.5,15.5,0,0,1,6.834,1.911l26.176-26.64,16.634,16.929-6.346,6.458L89.743,61.258l-4.872,4.958L95.159,76.688l-6.346,6.458L78.525,72.675l-8.613,8.765a16.208,16.208,0,0,1-2.706,18.906,15.517,15.517,0,0,1-22.217.009,15.9,15.9,0,0,1-1.125-1.273l-5.2,10.518H0V82.2C0,67.393,7.848,55.145,19.746,49.322a27.064,27.064,0,0,1-2.886-2.548,27.745,27.745,0,0,1,0-38.75ZM35.9,45.667a17.791,17.791,0,0,0,12.692-5.35,18.5,18.5,0,0,0,0-25.833,17.728,17.728,0,0,0-25.383,0,18.5,18.5,0,0,0,0,25.833A17.791,17.791,0,0,0,35.9,45.667Zm0,9.133c-15.47,0-26.923,11.655-26.923,27.4v18.267H33.132l7.9-15.974a16.1,16.1,0,0,1,2.5-5.048l9.351-18.9A26.922,26.922,0,0,0,35.9,54.8ZM49.486,87.72a6.947,6.947,0,0,0,1.847,6.174,6.653,6.653,0,0,0,9.525,0,6.941,6.941,0,0,0,0-9.694,6.653,6.653,0,0,0-9.525,0q-.112.114-.217.232Z" fill="rgba(255,255,255,0.5)"/>
</svg>
