<svg id="Group_40697" data-name="Group 40697" xmlns="http://www.w3.org/2000/svg" width="31.208" height="27.615" viewBox="0 0 31.208 27.615">
  <path id="Path_9384" data-name="Path 9384" d="M305.694,150.473a8.852,8.852,0,0,1,.451-1.34,4.148,4.148,0,0,1,3.758-2.373c.335-.012.67-.007,1.005,0a1.048,1.048,0,0,1,1.054,1.042c.013,1.056.008,2.112,0,3.168a.477.477,0,0,1-.473.525.47.47,0,0,1-.441-.521c-.006-.975-.011-1.95,0-2.925,0-.295-.1-.388-.393-.385a4.752,4.752,0,0,0-2,.279A3.315,3.315,0,0,0,306.611,151c-.022.476,0,.954,0,1.432q0,7.175,0,14.35v.36c.145-.134.266-.245.386-.358a4.228,4.228,0,0,1,3.032-1.2c.243,0,.488,0,.731,0,.209.006.3-.092.292-.294,0-.081,0-.162,0-.244q0-5.88,0-11.76c0-.5.139-.722.448-.728s.47.232.47.742v1.307h.355c1.026,0,2.052,0,3.077,0,.373,0,.594.185.583.47s-.224.444-.582.445q-1.539,0-3.077,0h-.356v.388q0,4.661,0,9.322A1.1,1.1,0,0,1,310.7,166.5a4.9,4.9,0,0,0-2.061.282,3.431,3.431,0,0,0-2,3.652,3.355,3.355,0,0,0,3.5,3.007q10.023,0,20.047,0c.122,0,.244,0,.365.008a.424.424,0,0,1,.421.437.432.432,0,0,1-.37.457,1.639,1.639,0,0,1-.364.016c-6.682,0-13.365-.021-20.047.012a4.341,4.341,0,0,1-4.443-3.652c0-.026-.032-.049-.049-.073Z" transform="translate(-305.694 -146.752)" fill="#86d361" fill-rule="evenodd"/>
  <path id="Path_9385" data-name="Path 9385" d="M355.981,160.812h-7.688c-.427,0-.659-.166-.655-.466s.223-.451.664-.451c2.711,0,5.422,0,8.134.006a.778.778,0,0,0,.649-.293c1.519-1.706,3.05-3.4,4.574-5.1.575-.641,1.009-.671,1.654-.1.312.276.623.553.93.834a.954.954,0,0,1,.066,1.571l-2.4,2.672c-.106.118-.209.237-.362.412h.4q2.147,0,4.295,0a1.084,1.084,0,0,1,1.243,1.248c0,5.747-.009,11.494.011,17.242a1.174,1.174,0,0,1-1.255,1.263c-.983-.033-1.969-.008-2.954-.009a1.2,1.2,0,0,1-.272-.015.436.436,0,0,1-.371-.455.421.421,0,0,1,.416-.44c.1-.008.2-.008.3-.008h2.8c.383,0,.407-.023.407-.39q0-8.575,0-17.15c0-.274-.081-.376-.366-.374-1.747.01-3.493,0-5.24.013a.621.621,0,0,0-.409.18q-1.816,1.993-3.608,4.006a2.338,2.338,0,0,1-1.124.765,12.57,12.57,0,0,0-1.725.823.728.728,0,0,1-1.087-.535,1.1,1.1,0,0,1,.08-.47c.164-.479.35-.95.516-1.429.059-.17.064-.358.127-.525a2.172,2.172,0,0,1,.314-.64c.558-.657,1.145-1.291,1.721-1.934C355.827,161,355.882,160.929,355.981,160.812Zm-1.045,3.114,6.7-7.461-.276-.244-6.7,7.459Zm.963.861,6.7-7.459-.279-.241-6.7,7.457Zm7.853-8.745-1.231-1.107-.536.6,1.235,1.1Zm-9.634,9.435.061.045.731-.365-.508-.462Z" transform="translate(-336.28 -152.037)" fill="#86d361" fill-rule="evenodd"/>
  <path id="Path_9386" data-name="Path 9386" d="M376.369,203.025c-.812,0-1.624,0-2.436,0-.455,0-.621-.147-.623-.588q-.009-2.482,0-4.963c0-.436.176-.592.624-.594.568,0,1.137-.006,1.7,0,.174,0,.243-.044.266-.232a3.508,3.508,0,1,1,3.818,3.938c-.2.018-.28.083-.275.294.013.5.007.995,0,1.492,0,.516-.139.652-.647.652Zm3.083-3.365a2.582,2.582,0,0,0,2.529-2.56,2.635,2.635,0,0,0-2.6-2.6,2.557,2.557,0,0,0-2.537,2.376h1.882c.6,0,.727.124.728.731C379.453,198.288,379.452,198.966,379.452,199.66Zm-.927,2.436c0-.491.008-.947-.008-1.4a.311.311,0,0,0-.166-.228,3.556,3.556,0,0,1-2.375-2.483c-.02-.069-.1-.168-.161-.17-.514-.013-1.028-.008-1.555-.008V202.1Zm-.01-4.274h-1.568a2.2,2.2,0,0,0,1.568,1.662Z" transform="translate(-354.998 -180.904)" fill="#86d361" fill-rule="evenodd"/>
  <path id="Path_9387" data-name="Path 9387" d="M338.463,210.011c-1.026,0-2.051,0-3.077,0-.337,0-.539-.169-.548-.442s.2-.469.549-.469c1.1,0,2.193,0,3.29,0,.944,0,1.888,0,2.833,0,.358,0,.558.168.558.455s-.2.455-.559.456C340.494,210.012,339.478,210.011,338.463,210.011Z" transform="translate(-326.946 -192.215)" fill="#86d361" fill-rule="evenodd"/>
  <path id="Path_9388" data-name="Path 9388" d="M338.118,205.1q-1.264,0-2.528,0a2.208,2.208,0,0,1-.334-.02.364.364,0,0,1-.348-.391.913.913,0,0,1,.269-.455c.061-.063.21-.057.319-.057q2.649,0,5.3,0a.879.879,0,0,1,.24.026.424.424,0,0,1,.345.47.4.4,0,0,1-.4.414c-.354.019-.71.014-1.065.015C339.315,205.1,338.716,205.1,338.118,205.1Z" transform="translate(-326.996 -188.626)" fill="#86d361" fill-rule="evenodd"/>
  <path id="Path_9389" data-name="Path 9389" d="M336.953,218.036c0,.193.005.385,0,.577a.469.469,0,0,1-.5.523c-.384.016-.77.014-1.154,0a.48.48,0,0,1-.521-.513c-.018-.384-.018-.77,0-1.154.015-.353.189-.507.542-.513.375-.005.749-.006,1.124,0a.455.455,0,0,1,.51.5C336.958,217.651,336.953,217.844,336.953,218.036Zm-.937.149v-.3h-.285v.3Z" transform="translate(-326.891 -197.944)" fill="#86d361" fill-rule="evenodd"/>
  <path id="Path_9390" data-name="Path 9390" d="M336.953,229.866c0,.2,0,.4,0,.607a.415.415,0,0,1-.424.456c-.435.015-.87.012-1.3,0a.44.44,0,0,1-.443-.481c-.018-.394-.019-.79,0-1.184a.46.46,0,0,1,.5-.5c.394-.019.79-.02,1.184,0,.343.016.485.181.5.523.006.192,0,.385,0,.577Zm-1.224.157.308-.027c-.006-.106-.011-.192-.016-.284h-.292Z" transform="translate(-326.893 -206.548)" fill="#86d361" fill-rule="evenodd"/>
  <path id="Path_9391" data-name="Path 9391" d="M345.978,218.028c0-.193-.006-.385,0-.577a.455.455,0,0,1,.492-.493q.592-.013,1.185,0a.457.457,0,0,1,.5.487c.014.395.013.79,0,1.185-.011.328-.2.5-.557.509s-.709.009-1.063,0c-.394-.01-.556-.188-.561-.593C345.976,218.373,345.978,218.2,345.978,218.028Zm.93.147c.285.07.386-.013.3-.289h-.3Z" transform="translate(-335.069 -197.943)" fill="#86d361" fill-rule="evenodd"/>
  <path id="Path_9392" data-name="Path 9392" d="M345.98,229.868c0-.193,0-.385,0-.577a.438.438,0,0,1,.433-.488c.433-.022.87-.021,1.3,0a.445.445,0,0,1,.443.484c.011.395.012.79,0,1.184a.457.457,0,0,1-.5.493c-.395.012-.79.012-1.184,0-.336-.01-.49-.178-.5-.517C345.975,230.253,345.98,230.06,345.98,229.868Zm1.235.16c.079-.323-.074-.337-.3-.284v.284Z" transform="translate(-335.07 -206.573)" fill="#86d361" fill-rule="evenodd"/>
  <path id="Path_9393" data-name="Path 9393" d="M358.221,216.961c.2,0,.4,0,.607,0a.419.419,0,0,1,.464.418c.019.444.017.889,0,1.334-.011.3-.233.416-.5.427-.384.015-.77.015-1.154,0a.47.47,0,0,1-.507-.519q-.019-.577,0-1.154c.012-.352.179-.5.539-.507.182,0,.365,0,.547,0Zm.129,1.234c.081-.285-.012-.367-.269-.3v.3Z" transform="translate(-343.199 -197.948)" fill="#86d361" fill-rule="evenodd"/>
  <path id="Path_9394" data-name="Path 9394" d="M358.238,230.964c-.213,0-.425.009-.637,0a.408.408,0,0,1-.431-.418c-.015-.434-.013-.869,0-1.3a.408.408,0,0,1,.418-.433c.434-.018.869-.019,1.3,0a.424.424,0,0,1,.438.45c.012.414.018.83,0,1.243a.438.438,0,0,1-.482.47c-.2.011-.4,0-.607,0Zm.144-1.216c-.3-.073-.343.05-.266.281C358.366,230.092,358.452,230,358.381,229.747Z" transform="translate(-343.223 -206.577)" fill="#86d361" fill-rule="evenodd"/>
  <path id="Path_9395" data-name="Path 9395" d="M337.054,200.226c-.548,0-1.095,0-1.642,0-.355,0-.566-.18-.574-.456s.206-.472.582-.477c.608-.008,1.216,0,1.824,0,.487,0,.973,0,1.46,0,.257,0,.489.066.554.366.071.324-.141.56-.532.567C338.169,200.233,337.611,200.226,337.054,200.226Z" transform="translate(-326.947 -185.061)" fill="#86d361" fill-rule="evenodd"/>
  <path id="Path_9396" data-name="Path 9396" d="M337.055,194.456c.558,0,1.115,0,1.673,0,.352,0,.554.18.546.467-.007.272-.209.445-.541.445q-1.673,0-3.345,0c-.347,0-.558-.188-.55-.47s.207-.44.544-.443C335.94,194.453,336.5,194.456,337.055,194.456Z" transform="translate(-326.946 -181.538)" fill="#86d361" fill-rule="evenodd"/>
  <path id="Path_9397" data-name="Path 9397" d="M401.317,221.613a4.156,4.156,0,0,1-.545,0,.423.423,0,0,1-.4-.45.407.407,0,0,1,.4-.447,9.76,9.76,0,0,1,1.119,0,.4.4,0,0,1,.389.425.418.418,0,0,1-.387.463,5.177,5.177,0,0,1-.574.032C401.317,221.628,401.317,221.621,401.317,221.613Z" transform="translate(-374.732 -200.675)" fill="#86d361" fill-rule="evenodd"/>
  <path id="Path_9398" data-name="Path 9398" d="M401.332,225.072c.172,0,.345-.012.516,0a.418.418,0,0,1,.418.432.429.429,0,0,1-.415.468,10.506,10.506,0,0,1-1.093,0,.422.422,0,0,1-.407-.448.441.441,0,0,1,.434-.454c.02,0,.041,0,.061,0h.486Z" transform="translate(-374.719 -203.861)" fill="#86d361" fill-rule="evenodd"/>
  <path id="Path_9399" data-name="Path 9399" d="M335.658,190.424a3.925,3.925,0,0,1-.4,0,.421.421,0,0,1-.406-.448.41.41,0,0,1,.377-.444,4.712,4.712,0,0,1,.881,0,.409.409,0,0,1,.377.444.421.421,0,0,1-.407.448C335.943,190.436,335.8,190.424,335.658,190.424Z" transform="translate(-326.959 -177.932)" fill="#86d361" fill-rule="evenodd"/>
  <path id="Path_9400" data-name="Path 9400" d="M356.309,190.424c-.132,0-.265.011-.4,0a.425.425,0,0,1-.415-.443.42.42,0,0,1,.4-.454,5.426,5.426,0,0,1,.82,0,.429.429,0,0,1,.407.475.42.42,0,0,1-.426.426c-.131.011-.263,0-.4,0Z" transform="translate(-342.013 -177.93)" fill="#86d361" fill-rule="evenodd"/>
  <path id="Path_9401" data-name="Path 9401" d="M345.991,190.423c-.132,0-.265.009-.4,0a.45.45,0,0,1-.019-.9,5.392,5.392,0,0,1,.821,0,.433.433,0,0,1,.414.471.425.425,0,0,1-.425.43c-.131.01-.263,0-.4,0Z" transform="translate(-334.487 -177.93)" fill="#86d361" fill-rule="evenodd"/>
</svg>
