<svg xmlns="http://www.w3.org/2000/svg" xmlns:xlink="http://www.w3.org/1999/xlink" width="122.79" height="122.79" viewBox="0 0 122.79 122.79">
  <defs>
    <linearGradient id="linear-gradient" x1="0.972" y1="0.928" x2="0.07" y2="0.104" gradientUnits="objectBoundingBox">
      <stop offset="0" stop-color="#9733ee"/>
      <stop offset="1" stop-color="#da22ff"/>
    </linearGradient>
  </defs>
  <g id="Group_3066" data-name="Group 3066" transform="translate(-259.223 -40.93)">
    <ellipse id="Ellipse_208" data-name="Ellipse 208" cx="61.395" cy="61.395" rx="61.395" ry="61.395" transform="translate(259.223 40.93)" opacity="0.1" fill="url(#linear-gradient)"/>
    <path id="Vector" d="M75.032,31.046a2.377,2.377,0,0,1-1.471.485,2.474,2.474,0,0,1-1.1-.256,2.446,2.446,0,0,1-.865-.714,15.775,15.775,0,0,0-5.616-4.654,15.959,15.959,0,0,0-7.134-1.651,2.466,2.466,0,0,1-1.734-.71,2.407,2.407,0,0,1,0-3.43,2.466,2.466,0,0,1,1.734-.71,7.415,7.415,0,0,0,3.939-1.136A7.3,7.3,0,0,0,65.5,15.221a7.213,7.213,0,0,0-.993-7.733,7.408,7.408,0,0,0-11.028-.34,7.248,7.248,0,0,0-1.863,3.616,2.408,2.408,0,0,1-.334.915,2.436,2.436,0,0,1-.67.712,2.474,2.474,0,0,1-2.792.036,2.438,2.438,0,0,1-.689-.694A2.4,2.4,0,0,1,46.8,9.854a12.065,12.065,0,0,1,2.368-5.175,12.238,12.238,0,0,1,4.491-3.541,12.38,12.38,0,0,1,11.159.4,12.21,12.21,0,0,1,4.22,3.853,12.04,12.04,0,0,1-1.916,15.681,20.745,20.745,0,0,1,8.4,6.579,2.411,2.411,0,0,1-.49,3.4ZM57.868,51.085a2.431,2.431,0,0,1,.1,1.85,2.464,2.464,0,0,1-1.235,1.393,2.877,2.877,0,0,1-1.073.243,2.5,2.5,0,0,1-1.3-.373,2.465,2.465,0,0,1-.908-.991,17.074,17.074,0,0,0-6.343-6.958,17.356,17.356,0,0,0-18.211,0,17.074,17.074,0,0,0-6.343,6.958,2.428,2.428,0,0,1-.578.755,2.448,2.448,0,0,1-3.937-1.027,2.431,2.431,0,0,1,.1-1.85A21.992,21.992,0,0,1,29.057,40.656a14.551,14.551,0,0,1-5.127-7.32,14.4,14.4,0,0,1,.144-8.9,14.565,14.565,0,0,1,5.362-7.153,14.844,14.844,0,0,1,17.142,0,14.565,14.565,0,0,1,5.362,7.153,14.4,14.4,0,0,1,.144,8.9,14.551,14.551,0,0,1-5.127,7.32A21.992,21.992,0,0,1,57.868,51.085ZM38.006,38.807a9.885,9.885,0,0,0,5.449-1.635,9.725,9.725,0,0,0,3.612-4.354,9.624,9.624,0,0,0-2.126-10.572,9.868,9.868,0,0,0-15.091,1.47A9.6,9.6,0,0,0,31.08,35.956a9.894,9.894,0,0,0,6.926,2.85ZM19.616,21.829a2.412,2.412,0,0,0-.718-1.715,2.466,2.466,0,0,0-1.734-.71,7.415,7.415,0,0,1-3.939-1.136,7.3,7.3,0,0,1-2.711-3.047,7.212,7.212,0,0,1,.993-7.733,7.408,7.408,0,0,1,11.028-.34A7.248,7.248,0,0,1,24.4,10.764a2.408,2.408,0,0,0,.334.915,2.436,2.436,0,0,0,.67.712,2.474,2.474,0,0,0,2.792.036,2.438,2.438,0,0,0,.689-.694,2.4,2.4,0,0,0,.327-1.879,12.065,12.065,0,0,0-2.368-5.175,12.238,12.238,0,0,0-4.491-3.541,12.38,12.38,0,0,0-11.159.4A12.21,12.21,0,0,0,6.972,5.39,12.04,12.04,0,0,0,8.889,21.071,20.745,20.745,0,0,0,.49,27.65a2.408,2.408,0,0,0,.49,3.4,2.377,2.377,0,0,0,1.471.485,2.474,2.474,0,0,0,1.1-.256,2.446,2.446,0,0,0,.865-.714,15.775,15.775,0,0,1,5.616-4.654,15.959,15.959,0,0,1,7.134-1.651,2.466,2.466,0,0,0,1.734-.71A2.412,2.412,0,0,0,19.616,21.829Z" transform="translate(284.561 74.064)" fill="url(#linear-gradient)"/>
  </g>
</svg>
