<svg xmlns="http://www.w3.org/2000/svg" width="118.892" height="85.359" viewBox="0 0 118.892 85.359">
  <path id="dull-user-groups" d="M117.358,48.559a3.718,3.718,0,0,1-2.3.759,3.87,3.87,0,0,1-1.715-.4,3.826,3.826,0,0,1-1.353-1.117,24.674,24.674,0,0,0-8.784-7.28,24.961,24.961,0,0,0-11.159-2.583,3.857,3.857,0,0,1-2.712-1.111,3.764,3.764,0,0,1,0-5.365,3.857,3.857,0,0,1,2.712-1.111,11.6,11.6,0,0,0,6.162-1.777,11.421,11.421,0,0,0,4.24-4.766,11.281,11.281,0,0,0-1.553-12.1,11.588,11.588,0,0,0-17.249-.532,11.336,11.336,0,0,0-2.914,5.656,3.767,3.767,0,0,1-.522,1.431,3.81,3.81,0,0,1-1.049,1.113,3.869,3.869,0,0,1-4.367.057,3.813,3.813,0,0,1-1.078-1.086,3.759,3.759,0,0,1-.511-2.938,18.87,18.87,0,0,1,3.7-8.095A19.142,19.142,0,0,1,83.932,1.78a19.364,19.364,0,0,1,17.455.625,19.1,19.1,0,0,1,6.6,6.027,18.831,18.831,0,0,1-3,24.527,32.448,32.448,0,0,1,13.136,10.29,3.772,3.772,0,0,1-.767,5.311ZM90.512,79.9A3.8,3.8,0,0,1,90.67,82.8a3.854,3.854,0,0,1-1.932,2.179,4.5,4.5,0,0,1-1.678.379,3.915,3.915,0,0,1-2.031-.584,3.856,3.856,0,0,1-1.421-1.55,26.706,26.706,0,0,0-9.92-10.883,27.146,27.146,0,0,0-28.483,0,26.706,26.706,0,0,0-9.92,10.883,3.8,3.8,0,0,1-.9,1.181A3.83,3.83,0,0,1,28.223,82.8a3.8,3.8,0,0,1,.158-2.894A34.4,34.4,0,0,1,45.448,63.59a22.76,22.76,0,0,1-8.019-11.449,22.525,22.525,0,0,1,.226-13.926A22.782,22.782,0,0,1,46.04,27.026a23.218,23.218,0,0,1,26.812,0,22.782,22.782,0,0,1,8.386,11.189,22.525,22.525,0,0,1,.226,13.926A22.76,22.76,0,0,1,73.445,63.59,34.4,34.4,0,0,1,90.512,79.9ZM59.446,60.7a15.461,15.461,0,0,0,8.523-2.557,15.211,15.211,0,0,0,5.65-6.81,15.053,15.053,0,0,0-3.326-16.536,15.434,15.434,0,0,0-23.6,2.3A15.011,15.011,0,0,0,48.612,56.24,15.475,15.475,0,0,0,59.446,60.7ZM30.682,34.143a3.773,3.773,0,0,0-1.123-2.682,3.857,3.857,0,0,0-2.712-1.111,11.6,11.6,0,0,1-6.162-1.777,11.421,11.421,0,0,1-4.24-4.766A11.281,11.281,0,0,1,18,11.711a11.588,11.588,0,0,1,17.249-.532,11.336,11.336,0,0,1,2.914,5.656,3.767,3.767,0,0,0,.522,1.431,3.81,3.81,0,0,0,1.049,1.113,3.869,3.869,0,0,0,4.367.057,3.814,3.814,0,0,0,1.078-1.086,3.759,3.759,0,0,0,.511-2.938,18.87,18.87,0,0,0-3.7-8.095A19.142,19.142,0,0,0,34.96,1.78,19.364,19.364,0,0,0,17.506,2.4a19.1,19.1,0,0,0-6.6,6.027,18.831,18.831,0,0,0,3,24.527A32.448,32.448,0,0,0,.767,43.248a3.766,3.766,0,0,0,.767,5.311,3.718,3.718,0,0,0,2.3.759,3.87,3.87,0,0,0,1.715-.4A3.826,3.826,0,0,0,6.9,47.8a24.674,24.674,0,0,1,8.784-7.28,24.961,24.961,0,0,1,11.159-2.583,3.857,3.857,0,0,0,2.712-1.111A3.773,3.773,0,0,0,30.682,34.143Z" fill="rgba(255,255,255,0.5)"/>
</svg>
