<svg xmlns="http://www.w3.org/2000/svg" width="32.5" height="26.5" viewBox="0 0 32.5 26.5">
  <path id="email_default" data-name="email default" d="M2.6,3.669l13.65,9.555L29.9,3.669A1.761,1.761,0,0,0,28.25,2.5h-24A1.761,1.761,0,0,0,2.6,3.669ZM30,6.651,16.967,15.774a1.25,1.25,0,0,1-1.434,0L2.5,6.651v15.6A1.759,1.759,0,0,0,4.25,24h24A1.759,1.759,0,0,0,30,22.25ZM0,4.25A4.259,4.259,0,0,1,4.25,0h24A4.259,4.259,0,0,1,32.5,4.25v18a4.259,4.259,0,0,1-4.25,4.25h-24A4.259,4.259,0,0,1,0,22.25Z" fill="#fff"/>
</svg>
