<svg xmlns="http://www.w3.org/2000/svg" width="36" height="36" viewBox="0 0 36 36">
  <g id="Group_3008" data-name="Group 3008" transform="translate(-453.807 -114)">
    <path id="Path_9245" data-name="Path 9245" d="M503.293,196.332v-.162h-.162Z" transform="translate(-35.881 -59.775)" fill="none"/>
    <path id="Path_9246" data-name="Path 9246" d="M503.293,196.17h-.162l.162.162Z" transform="translate(-35.881 -59.775)" fill="none"/>
    <path id="Path_9247" data-name="Path 9247" d="M509.51,207.994l2.723-2.723-2.723-2.723v5.445Z" transform="translate(-40.521 -64.415)" fill="none"/>
    <path id="Path_9248" data-name="Path 9248" d="M478.618,181.154h2.23l-2.723-2.723-2.723,2.723h3.215Z" transform="translate(-15.71 -46.871)" fill="none"/>
    <path id="Path_9249" data-name="Path 9249" d="M486.864,127.6H476.2V116.943A2.943,2.943,0,0,0,473.259,114H456.75a2.943,2.943,0,0,0-2.943,2.943v16.508a2.946,2.946,0,0,0,2.943,2.944h.831l2.112-2.112,2.723-2.722,2.723,2.722h3.85v3.851l2.723,2.723-2.723,2.723-1.577,1.577v1.9A2.964,2.964,0,0,0,470.355,150h16.509a2.943,2.943,0,0,0,2.943-2.943V130.548A2.943,2.943,0,0,0,486.864,127.6Z" transform="translate(0 0)" fill="#fff"/>
    <path id="Path_9250" data-name="Path 9250" d="M474.479,187.517l-1.248-.216,2.947-2.824a1.93,1.93,0,0,1,.346.2c.867.808,1.728,1.621,2.761,2.594l-1.308.221v3.3a22.305,22.305,0,0,0,3.253.017l.246-1.145,2.757,2.986a27.224,27.224,0,0,1-2.776,2.862c-.063-.423-.109-.729-.159-1.057a.982.982,0,0,0-.32-.129,16.129,16.129,0,0,0-2.088-.01,1.971,1.971,0,0,1-1.644-.653c-.76-.734-1.456-1.535-2.232-2.251a1.6,1.6,0,0,1-.536-1.3C474.485,189.256,474.479,188.4,474.479,187.517Z" transform="translate(-14.13 -51.269)" fill="#fff" fill-rule="evenodd"/>
    <g id="Group_3006" data-name="Group 3006" transform="translate(473.267 135.102)">
      <path id="Path_9251" data-name="Path 9251" d="M527.433,197.032l-.518,1.868h-1.706l2.224-7.276h2.159l2.256,7.276h-1.771l-.561-1.868Zm1.846-1.231-.454-1.544c-.13-.432-.259-.972-.367-1.4h-.021c-.108.432-.216.983-.335,1.4l-.432,1.544Z" transform="translate(-525.209 -191.569)" fill="#022299"/>
      <path id="Path_9252" data-name="Path 9252" d="M553.14,191.575a14.452,14.452,0,0,1,2.192-.151,3.713,3.713,0,0,1,2.353.572,1.847,1.847,0,0,1,.669,1.522,1.932,1.932,0,0,1-1.285,1.792v.032a1.835,1.835,0,0,1,.971,1.36c.227.821.453,1.771.594,2.051h-1.684a9.094,9.094,0,0,1-.508-1.695c-.194-.907-.508-1.155-1.177-1.166h-.5v2.861h-1.63Zm1.63,3.131h.648c.821,0,1.306-.41,1.306-1.047,0-.669-.454-1-1.209-1.015a4.1,4.1,0,0,0-.745.054Z" transform="translate(-545.528 -191.424)" fill="#022299"/>
    </g>
    <g id="Group_3007" data-name="Group 3007" transform="translate(459.079 121.691)">
      <path id="Path_9253" data-name="Path 9253" d="M477.478,146.42H474.8v1.727h2.991V149.5h-4.643V142.22h4.491v1.349H474.8v1.512h2.677Z" transform="translate(-473.149 -142.22)" fill="#022299"/>
      <path id="Path_9254" data-name="Path 9254" d="M494.306,149.5V142.22h1.921l1.512,2.667a21.144,21.144,0,0,1,1.188,2.494h.032a26.939,26.939,0,0,1-.141-3.034V142.22h1.512V149.5H498.6l-1.555-2.807a27.092,27.092,0,0,1-1.263-2.569l-.032.011c.043.961.065,1.987.065,3.174V149.5Z" transform="translate(-488.54 -142.22)" fill="#022299"/>
    </g>
  </g>
</svg>
