<svg xmlns="http://www.w3.org/2000/svg" width="56.249" height="31.316" viewBox="0 0 56.249 31.316">
  <g id="Group_40529" data-name="Group 40529" transform="translate(-1737 -466)">
    <path id="ic_people_24px" d="M29.125,18.421c3.112,0,5.606-3,5.606-6.711S32.237,5,29.125,5,23.5,8,23.5,11.711,26.012,18.421,29.125,18.421Zm-15,0c3.112,0,5.606-3,5.606-6.711S17.237,5,14.125,5,8.5,8,8.5,11.711,11.012,18.421,14.125,18.421Zm0,4.474C9.756,22.895,1,25.512,1,30.724v5.592H27.25V30.724C27.25,25.512,18.493,22.895,14.125,22.895Zm15,0c-.544,0-1.162.045-1.819.112A9.933,9.933,0,0,1,31,30.724v5.592h11.25V30.724C42.249,25.512,33.493,22.895,29.125,22.895Z" transform="translate(1751 461)" fill="#fff"/>
    <path id="ic_people_24px-2" data-name="ic_people_24px" d="M14.125,18.421c-3.112,0-5.606-3-5.606-6.711S11.012,5,14.125,5s5.625,3,5.625,6.711S17.237,18.421,14.125,18.421Zm15,0c-3.112,0-5.606-3-5.606-6.711S26.012,5,29.125,5s5.625,3,5.625,6.711S32.237,18.421,29.125,18.421Zm0,4.474c4.369,0,13.125,2.617,13.125,7.829v5.592H16V30.724C16,25.512,24.756,22.895,29.125,22.895Zm-15,0c.544,0,1.162.045,1.819.112a9.933,9.933,0,0,0-3.694,7.717v5.592H1V30.724C1,25.512,9.756,22.895,14.125,22.895Z" transform="translate(1736 461)" fill="#fff"/>
  </g>
</svg>
