<svg id="Group_3068" data-name="Group 3068" xmlns="http://www.w3.org/2000/svg" width="45.63" height="64.224" viewBox="0 0 45.63 64.224">
  <g id="Group_3067" data-name="Group 3067">
    <path id="Icon_background" data-name="Icon background" d="M22.815,0C35.415,0,45.63,14.377,45.63,32.112S35.415,64.224,22.815,64.224,0,49.847,0,32.112,10.215,0,22.815,0Z" fill="#f4f7fe"/>
  </g>
  <g id="school" transform="translate(9.778 13.762)">
    <path id="Vector" d="M0,0H26.074V36.7H0Z" fill="none"/>
    <path id="Vector-2" data-name="Vector" d="M11.951,0,0,9.175l4.346,3.334v9.175l7.605,5.841,7.605-5.841V12.508l2.173-1.667V21.408H23.9V9.175ZM19.36,9.175l-7.409,5.688L4.541,9.175l7.409-5.688ZM17.383,19.864l-5.432,4.175L6.519,19.864V14.175l5.432,4.175,5.432-4.175Z" transform="translate(1.086 4.587)" fill="#ffce20"/>
  </g>
</svg>
