<svg xmlns="http://www.w3.org/2000/svg" width="1560.116" height="106.815" viewBox="0 0 1560.116 106.815">
  <g id="Group_41355" data-name="Group 41355" transform="translate(-18970.531 -1558.581)">
    <rect id="Rectangle_17585" data-name="Rectangle 17585" width="1560.116" height="106" transform="translate(18970.531 1558.581)" fill="#f7f7f7"/>
    <text id="IN-PROGRESS_BOOKING" data-name="IN-PROGRESS BOOKING" transform="translate(19010.721 1619.396)" fill="#6f6f6f" font-size="20" font-family="Dubai-Bold, Dubai" font-weight="700"><tspan x="0" y="23">Quotation ID</tspan></text>
    <path id="Vector" d="M9.146,0A3.319,3.319,0,0,0,6.818.949a3.216,3.216,0,0,0-.964,2.292V13.523a3.712,3.712,0,0,1,2.2-.229V3.242a1.072,1.072,0,0,1,.321-.764,1.106,1.106,0,0,1,.776-.316H21.585a1.106,1.106,0,0,1,.776.316,1.072,1.072,0,0,1,.321.764V21.611H16.1v2.161h9.146A4.794,4.794,0,0,0,28.607,22.4,4.646,4.646,0,0,0,30,19.09V14.407H24.878V3.242A3.216,3.216,0,0,0,23.914.949,3.319,3.319,0,0,0,21.585,0Zm16.1,21.611h-.366V16.568H27.8V19.09a2.5,2.5,0,0,1-.75,1.783,2.582,2.582,0,0,1-1.811.738ZM14.075,16.123a3.714,3.714,0,0,1,.7.445h4.62a1.106,1.106,0,0,0,.776-.316,1.069,1.069,0,0,0,0-1.528,1.106,1.106,0,0,0-.776-.316H11.341a1.107,1.107,0,0,0-.506.121l3.24,1.595Zm-2.734-11.8a1.106,1.106,0,0,0-.776.316,1.069,1.069,0,0,0,0,1.528,1.106,1.106,0,0,0,.776.316H19.39a1.106,1.106,0,0,0,.776-.316,1.069,1.069,0,0,0,0-1.528,1.106,1.106,0,0,0-.776-.316Zm0,5.043a1.106,1.106,0,0,0-.776.316,1.069,1.069,0,0,0,0,1.528,1.106,1.106,0,0,0,.776.316H19.39a1.106,1.106,0,0,0,.776-.316,1.069,1.069,0,0,0,0-1.528,1.106,1.106,0,0,0-.776-.316ZM0,25.318V19.345a2.136,2.136,0,0,1,.329-1.136,2.183,2.183,0,0,1,.886-.8l5.122-2.521a2.226,2.226,0,0,1,1.961,0l5.122,2.521a2.183,2.183,0,0,1,.886.8,2.136,2.136,0,0,1,.329,1.136v5.973a2.136,2.136,0,0,1-.328,1.137,2.183,2.183,0,0,1-.886.8L8.3,29.772a2.226,2.226,0,0,1-1.961,0L1.215,27.251a2.183,2.183,0,0,1-.886-.8A2.136,2.136,0,0,1,0,25.318Zm2.273-5.831a.71.71,0,0,0-.04.55.724.724,0,0,0,.367.417l3.986,1.964v4.236a.715.715,0,0,0,.214.509.74.74,0,0,0,1.035,0,.715.715,0,0,0,.214-.509V22.418l3.986-1.964a.724.724,0,0,0,.362-.417.71.71,0,0,0-.041-.547.728.728,0,0,0-.421-.36.742.742,0,0,0-.556.036l-4.062,2-4.062-2a.742.742,0,0,0-.559-.04.728.728,0,0,0-.423.361Z" transform="translate(19051.221 1583.869)" fill="#6f6f6f"/>
    <text id="IN-PROGRESS_BOOKING-2" data-name="IN-PROGRESS BOOKING" transform="translate(19209.793 1619.396)" fill="#6f6f6f" font-size="20" font-family="Dubai-Bold, Dubai" font-weight="700"><tspan x="0" y="23">Branch ID</tspan></text>
    <path id="ic_chrome_reader_mode_24px" d="M17.364,14.909h9.545v2.045H17.364Zm0-3.409h9.545v2.045H17.364Zm0,6.818h9.545v2.045H17.364ZM28.273,4H3.727A2.735,2.735,0,0,0,1,6.727V24.455a2.735,2.735,0,0,0,2.727,2.727H28.273A2.735,2.735,0,0,0,31,24.455V6.727A2.735,2.735,0,0,0,28.273,4Zm0,20.455H16V6.727H28.273Z" transform="translate(19235.746 1583.869)" fill="#6f6f6f"/>
    <text id="IN-PROGRESS_BOOKING-3" data-name="IN-PROGRESS BOOKING" transform="translate(19360.059 1619.396)" fill="#6f6f6f" font-size="20" font-family="Dubai-Bold, Dubai" font-weight="700"><tspan x="0" y="23">Client Name</tspan></text>
    <path id="ic_pregnant_woman_24px" d="M9.378,4.756a2.756,2.756,0,1,1,2.756,2.756A2.746,2.746,0,0,1,9.378,4.756Zm9.646,12.4a4.527,4.527,0,0,0-2.756-4.134,4.134,4.134,0,1,0-8.268,0V22.67h2.756v6.89H14.89V22.67h4.134Z" transform="translate(19404.816 1582.869)" fill="#6f6f6f"/>
    <g id="Group_40631" data-name="Group 40631" transform="translate(20336.143 1580.612)">
      <text id="IN-PROGRESS_BOOKING-4" data-name="IN-PROGRESS BOOKING" transform="translate(0 38.784)" fill="#6f6f6f" font-size="20" font-family="Dubai-Bold, Dubai" font-weight="700"><tspan x="0" y="23">Status</tspan></text>
      <path id="ic_domain_24px_black" d="M19.4,9.958V3H2V34.312H36.791V9.958ZM8.958,30.833H5.479V27.354H8.958Zm0-6.958H5.479V20.4H8.958Zm0-6.958H5.479V13.437H8.958Zm0-6.958H5.479V6.479H8.958Zm6.958,20.875H12.437V27.354h3.479Zm0-6.958H12.437V20.4h3.479Zm0-6.958H12.437V13.437h3.479Zm0-6.958H12.437V6.479h3.479Zm17.4,20.875H19.4V27.354h3.479V23.875H19.4V20.4h3.479V16.917H19.4V13.437H33.312ZM29.833,16.917H26.354V20.4h3.479Zm0,6.958H26.354v3.479h3.479Z" transform="translate(9 -3)" fill="#6f6f6f"/>
    </g>
    <text id="IN-PROGRESS_BOOKING-5" data-name="IN-PROGRESS BOOKING" transform="translate(19542.295 1619.396)" fill="#6f6f6f" font-size="20" font-family="Dubai-Bold, Dubai" font-weight="700"><tspan x="0" y="23">Quot Type</tspan></text>
    <path id="ic_assignment_24px_black" d="M22.926,3.491H17.72a3.721,3.721,0,0,0-7.024,0H5.491A2.5,2.5,0,0,0,3,5.982V23.417a2.5,2.5,0,0,0,2.491,2.491H22.926a2.5,2.5,0,0,0,2.491-2.491V5.982A2.5,2.5,0,0,0,22.926,3.491Zm-8.718,0a1.245,1.245,0,1,1-1.245,1.245A1.249,1.249,0,0,1,14.208,3.491ZM16.7,20.926H7.982V18.435H16.7Zm3.736-4.982H7.982V13.454H20.435Zm0-4.982H7.982V8.472H20.435Z" transform="translate(19574.395 1585.869)" fill="#6f6f6f"/>
    <g id="Group_40636" data-name="Group 40636" transform="translate(19706.664 1585.869)">
      <text id="IN-PROGRESS_BOOKING-6" data-name="IN-PROGRESS BOOKING" transform="translate(0 33.527)" fill="#6f6f6f" font-size="20" font-family="Dubai-Bold, Dubai" font-weight="700"><tspan x="0" y="23">Total Amount </tspan></text>
      <path id="ic_monetization_on_24px" d="M15.5,2A13.5,13.5,0,1,0,29,15.5,13.5,13.5,0,0,0,15.5,2Zm1.9,21.722V26.3H13.8V23.694c-2.308-.486-4.266-1.971-4.414-4.59h2.646c.135,1.417,1.107,2.525,3.578,2.525,2.646,0,3.24-1.323,3.24-2.147,0-1.12-.594-2.173-3.6-2.889C11.9,15.783,9.6,14.407,9.6,11.639c0-2.322,1.876-3.834,4.2-4.333V4.7h3.6V7.333a4.773,4.773,0,0,1,3.847,4.576H18.6c-.067-1.5-.864-2.524-3-2.524-2.025,0-3.24.918-3.24,2.214,0,1.134.877,1.877,3.6,2.578s5.643,1.877,5.643,5.278c-.014,2.471-1.863,3.82-4.212,4.266Z" transform="translate(39.69 -2)" fill="#6f6f6f"/>
    </g>
    <g id="Group_40632" data-name="Group 40632" transform="translate(19996.563 1584.956)">
      <text id="IN-PROGRESS_BOOKING-7" data-name="IN-PROGRESS BOOKING" transform="translate(0 34.44)" fill="#6f6f6f" font-size="20" font-family="Dubai-Bold, Dubai" font-weight="700"><tspan x="0" y="23">Remarks</tspan></text>
      <path id="ic_description_24px_black" d="M17.313,2H6.663A2.659,2.659,0,0,0,4.013,4.663L4,25.963a2.659,2.659,0,0,0,2.649,2.663H22.638A2.67,2.67,0,0,0,25.3,25.963V9.988Zm2.663,21.3H9.325V20.638h10.65Zm0-5.325H9.325V15.313h10.65Zm-3.994-6.656V4L23.3,11.319Z" transform="translate(24.934 -2)" fill="#6f6f6f"/>
    </g>
  </g>
</svg>
