<svg xmlns="http://www.w3.org/2000/svg" width="38.902" height="34" viewBox="0 0 38.902 34">
  <g id="Group_40526" data-name="Group 40526" transform="translate(-1721.267 -542.567)">
    <path id="ic_settings_24px" d="M23.6,15.651a9.689,9.689,0,0,0,.087-1.218,9.689,9.689,0,0,0-.087-1.218l2.623-2.051a.627.627,0,0,0,.149-.8l-2.487-4.3a.625.625,0,0,0-.758-.274l-3.1,1.243a9.083,9.083,0,0,0-2.1-1.218l-.472-3.295A.606.606,0,0,0,16.853,2H11.88a.606.606,0,0,0-.609.522L10.8,5.817A9.552,9.552,0,0,0,8.7,7.035L5.6,5.792a.606.606,0,0,0-.758.274l-2.487,4.3a.613.613,0,0,0,.149.8l2.623,2.051a9.86,9.86,0,0,0-.087,1.218,9.86,9.86,0,0,0,.087,1.218L2.506,17.7a.627.627,0,0,0-.149.8l2.487,4.3a.625.625,0,0,0,.758.274L8.7,21.83a9.084,9.084,0,0,0,2.1,1.218l.472,3.295a.606.606,0,0,0,.609.522h4.973a.606.606,0,0,0,.609-.522l.472-3.295a9.552,9.552,0,0,0,2.1-1.218l3.1,1.243a.606.606,0,0,0,.758-.274l2.487-4.3a.627.627,0,0,0-.149-.8Zm-9.238,3.133a4.351,4.351,0,1,1,4.351-4.351A4.356,4.356,0,0,1,14.367,18.784Z" transform="translate(1718.997 544.135)" fill="#fff"/>
    <path id="ic_settings_24px-2" data-name="ic_settings_24px" d="M14.282,9.686a4.827,4.827,0,0,0,0-1.372l1.477-1.155a.353.353,0,0,0,.084-.448l-1.4-2.422a.352.352,0,0,0-.427-.154l-1.743.7a5.114,5.114,0,0,0-1.183-.686l-.266-1.855A.341.341,0,0,0,10.481,2h-2.8a.341.341,0,0,0-.343.294L7.072,4.149a5.378,5.378,0,0,0-1.183.686l-1.743-.7a.341.341,0,0,0-.427.154l-1.4,2.422a.345.345,0,0,0,.084.448L3.88,8.314A5.551,5.551,0,0,0,3.831,9a5.551,5.551,0,0,0,.049.686L2.4,10.841a.353.353,0,0,0-.084.448l1.4,2.422a.352.352,0,0,0,.427.154l1.743-.7a5.114,5.114,0,0,0,1.183.686l.266,1.855A.341.341,0,0,0,7.681,16h2.8a.341.341,0,0,0,.343-.294l.266-1.855a5.378,5.378,0,0,0,1.183-.686l1.743.7a.341.341,0,0,0,.427-.154l1.4-2.422a.353.353,0,0,0-.084-.448Zm-5.2,1.764A2.45,2.45,0,1,1,11.531,9,2.453,2.453,0,0,1,9.081,11.45Z" transform="translate(1744.281 540.567)" fill="#fff"/>
    <path id="ic_settings_24px-3" data-name="ic_settings_24px" d="M14.282,9.686a4.827,4.827,0,0,0,0-1.372l1.477-1.155a.353.353,0,0,0,.084-.448l-1.4-2.422a.352.352,0,0,0-.427-.154l-1.743.7a5.114,5.114,0,0,0-1.183-.686l-.266-1.855A.341.341,0,0,0,10.481,2h-2.8a.341.341,0,0,0-.343.294L7.072,4.149a5.378,5.378,0,0,0-1.183.686l-1.743-.7a.341.341,0,0,0-.427.154l-1.4,2.422a.345.345,0,0,0,.084.448L3.88,8.314A5.551,5.551,0,0,0,3.831,9a5.551,5.551,0,0,0,.049.686L2.4,10.841a.353.353,0,0,0-.084.448l1.4,2.422a.352.352,0,0,0,.427.154l1.743-.7a5.114,5.114,0,0,0,1.183.686l.266,1.855A.341.341,0,0,0,7.681,16h2.8a.341.341,0,0,0,.343-.294l.266-1.855a5.378,5.378,0,0,0,1.183-.686l1.743.7a.341.341,0,0,0,.427-.154l1.4-2.422a.353.353,0,0,0-.084-.448Zm-5.2,1.764A2.45,2.45,0,1,1,11.531,9,2.453,2.453,0,0,1,9.081,11.45Z" transform="translate(1744.281 560.567)" fill="#fff"/>
  </g>
</svg>
