<svg xmlns="http://www.w3.org/2000/svg" width="106.066" height="81.822" viewBox="0 0 106.066 81.822">
  <path id="hand-shake" d="M65.583,0a24.109,24.109,0,0,0-6.394.726,22.566,22.566,0,0,0-6.747,3.157C49.54,2.138,46.73.7,44.036.363A67.03,67.03,0,0,0,33.975.246c-4.281.089-7.072,2.33-11.6,4.124A48.439,48.439,0,0,1,3.788,7.889H0V45.265l2.133,1.091,6.981,3.522L33.975,78.273l.117.12a12.725,12.725,0,0,0,10.061,3.4A19.559,19.559,0,0,0,53.268,79C58.863,75.543,74.1,64.682,74.1,64.682l.356-.245L74.7,64.2a13.657,13.657,0,0,0,3.315-6.431L92.569,50.24l10.891-3.759,2.606-.854V7.889h-3.788A47.6,47.6,0,0,1,83.694,4.246C79.163,2.433,76.413.215,72.087.122,69.776.076,67.678-.014,65.579,0ZM65.7,7.768c1.7-.016,3.674.078,6.159.12.4.016,4.038,1.608,9.114,3.643A58.2,58.2,0,0,0,98.49,15.29V40.046l-8.762,3.037h-.235l-.239.117L77.777,49.149a13.858,13.858,0,0,0-2.841-4.854L74.7,43.93,58.6,23.667,56.23,20.63l-2.962,2.427-10.179,8.5c-3.417,2.427-6.186,1.728-9,.365a7.061,7.061,0,0,1-1.421-.971L49.957,16.261l.235-.241C55.325,10.8,58.48,9,61.2,8.254a17.146,17.146,0,0,1,4.5-.485Zm-26.392.12a26.945,26.945,0,0,1,3.788.12c.992.12,2.118.986,3.08,1.336-.386.365-.667.575-1.068.971l-.235.245L24.153,28.152l-3.2,2.672L23.8,33.856a25.136,25.136,0,0,0,6.985,5.1c4.246,2.062,10.8,3.231,16.69-.971l.239-.245,7.337-6.186,13.97,17.6.117.245.117.117a6.518,6.518,0,0,1,0,9.106c-.03.027.03.089,0,.117s-.53.322-.591.369l-4.974-6.92-6.156,4.613,4.856,6.671c-1.97,1.367-2.856,2.081-4.974,3.522l-5.087-7.04-6.159,4.613,4.856,6.672c-.432.272-1.318.882-1.659,1.1a13.419,13.419,0,0,1-5.565,1.7,6.107,6.107,0,0,1-4.14-.971l-.117-.12L14.209,44.174l-.474-.61L7.576,40.411V15.29A59.8,59.8,0,0,0,25.1,11.652c5.061-1.988,8.675-3.627,9.114-3.643l5.091-.12Z" fill="rgba(255,255,255,0.5)"/>
</svg>
