<svg xmlns="http://www.w3.org/2000/svg" width="26" height="28" viewBox="0 0 26 28">
  <path id="Cockpit" d="M2.889,28H23.111a2.936,2.936,0,0,0,2.043-.82A2.757,2.757,0,0,0,26,25.2V12.6a1.362,1.362,0,0,0-.107-.537,1.4,1.4,0,0,0-.312-.457L14.026.407a1.477,1.477,0,0,0-2.037,0L.433,11.607a1.4,1.4,0,0,0-.319.455A1.363,1.363,0,0,0,0,12.6V25.2a2.757,2.757,0,0,0,.846,1.98A2.936,2.936,0,0,0,2.889,28Zm7.222-2.8v-7h5.778v7ZM2.889,13.175,13,3.375l10.111,9.8V25.2H18.778v-7a2.757,2.757,0,0,0-.846-1.98,2.936,2.936,0,0,0-2.043-.82H10.111a2.936,2.936,0,0,0-2.043.82,2.757,2.757,0,0,0-.846,1.98v7H2.889Z" fill="#fff"/>
</svg>
