<svg xmlns="http://www.w3.org/2000/svg" width="46.563" height="44.233" viewBox="0 0 46.563 44.233">
  <path id="ic_airline_seat_recline_extra_24px" d="M9.8,10.474a4.663,4.663,0,1,1,6.5-1.141,4.686,4.686,0,0,1-6.5,1.141Zm24.795,31.1H18.134a6.964,6.964,0,0,1-6.891-5.914L6.656,13.64H2L6.633,36.363a11.664,11.664,0,0,0,11.524,9.871H34.594Zm.535-9.313H23.768l-2.4-9.545c3.678,2.072,7.636,3.585,11.99,2.84V20.6a14.186,14.186,0,0,1-10.919-2.91l-3.818-2.957a5.267,5.267,0,0,0-1.769-.885,5.144,5.144,0,0,0-2.3-.14H14.5a5.279,5.279,0,0,0-4.284,6.076l3.143,13.783a7,7,0,0,0,6.868,5.681H36.177l8.894,6.984,3.492-3.492Z" transform="translate(-2 -2.001)" fill="#fff"/>
</svg>
