<svg xmlns="http://www.w3.org/2000/svg" width="22.416" height="24.908" viewBox="0 0 22.416 24.908">
  <path id="ic_assignment_24px_black" d="M22.926,3.491H17.72a3.721,3.721,0,0,0-7.024,0H5.491A2.5,2.5,0,0,0,3,5.982V23.417a2.5,2.5,0,0,0,2.491,2.491H22.926a2.5,2.5,0,0,0,2.491-2.491V5.982A2.5,2.5,0,0,0,22.926,3.491Zm-8.718,0a1.245,1.245,0,1,1-1.245,1.245A1.249,1.249,0,0,1,14.208,3.491ZM16.7,20.926H7.982V18.435H16.7Zm3.736-4.982H7.982V13.454H20.435Zm0-4.982H7.982V8.472H20.435Z" transform="translate(-3 -1)" fill="#6f6f6f"/>
</svg>
