<svg xmlns="http://www.w3.org/2000/svg" width="34.791" height="31.312" viewBox="0 0 34.791 31.312">
  <path id="ic_domain_24px_black" d="M19.4,9.958V3H2V34.312H36.791V9.958ZM8.958,30.833H5.479V27.354H8.958Zm0-6.958H5.479V20.4H8.958Zm0-6.958H5.479V13.437H8.958Zm0-6.958H5.479V6.479H8.958Zm6.958,20.875H12.437V27.354h3.479Zm0-6.958H12.437V20.4h3.479Zm0-6.958H12.437V13.437h3.479Zm0-6.958H12.437V6.479h3.479Zm17.4,20.875H19.4V27.354h3.479V23.875H19.4V20.4h3.479V16.917H19.4V13.437H33.312ZM29.833,16.917H26.354V20.4h3.479Zm0,6.958H26.354v3.479h3.479Z" transform="translate(-2 -3)" fill="#6f6f6f"/>
</svg>
