<svg xmlns="http://www.w3.org/2000/svg" width="40" height="25.455" viewBox="0 0 40 25.455">
  <path id="ic_group_24px" d="M28.273,15.909a5.455,5.455,0,1,0-5.455-5.455A5.432,5.432,0,0,0,28.273,15.909Zm-14.545,0a5.455,5.455,0,1,0-5.455-5.455A5.432,5.432,0,0,0,13.727,15.909Zm0,3.636C9.491,19.545,1,21.673,1,25.909v4.545H26.455V25.909C26.455,21.673,17.964,19.545,13.727,19.545Zm14.545,0c-.527,0-1.127.036-1.764.091a7.673,7.673,0,0,1,3.582,6.273v4.545H41V25.909C41,21.673,32.509,19.545,28.273,19.545Z" transform="translate(-1 -5)" fill="#fff"/>
</svg>
