<svg xmlns="http://www.w3.org/2000/svg" width="27" height="27" viewBox="0 0 27 27">
  <path id="ic_monetization_on_24px" d="M15.5,2A13.5,13.5,0,1,0,29,15.5,13.5,13.5,0,0,0,15.5,2Zm1.9,21.722V26.3H13.8V23.694c-2.308-.486-4.266-1.971-4.414-4.59h2.646c.135,1.417,1.107,2.525,3.578,2.525,2.646,0,3.24-1.323,3.24-2.147,0-1.12-.594-2.173-3.6-2.889C11.9,15.783,9.6,14.407,9.6,11.639c0-2.322,1.876-3.834,4.2-4.333V4.7h3.6V7.333a4.773,4.773,0,0,1,3.847,4.576H18.6c-.067-1.5-.864-2.524-3-2.524-2.025,0-3.24.918-3.24,2.214,0,1.134.877,1.877,3.6,2.578s5.643,1.877,5.643,5.278c-.014,2.471-1.863,3.82-4.212,4.266Z" transform="translate(-2 -2)" fill="#6f6f6f"/>
</svg>
