<svg id="Union" xmlns="http://www.w3.org/2000/svg" xmlns:xlink="http://www.w3.org/1999/xlink" width="52.875" height="61.395" viewBox="0 0 52.875 61.395">
  <defs>
    <linearGradient id="linear-gradient" x2="1" y2="1" gradientUnits="objectBoundingBox">
      <stop offset="0" stop-color="#868cff"/>
      <stop offset="1" stop-color="#4318ff"/>
    </linearGradient>
  </defs>
  <path id="Union-2" data-name="Union" d="M25.391,60.4,20.1,53.793a2.647,2.647,0,0,1-.462-2.429l5.212-16.936A21.153,21.153,0,0,0,5.287,55.519a2.643,2.643,0,1,1-5.287,0,26.438,26.438,0,1,1,52.875,0,2.643,2.643,0,1,1-5.287,0A21.158,21.158,0,0,0,30.14,34.692L35.27,51.364a2.643,2.643,0,0,1-.462,2.429L29.52,60.4a2.643,2.643,0,0,1-4.129,0Zm-.286-8.821,2.35,2.937L29.8,51.581l-2.349-7.636ZM13.218,13.218a13.219,13.219,0,1,1,13.22,13.22A13.219,13.219,0,0,1,13.218,13.218Zm5.288,0a7.931,7.931,0,1,0,7.931-7.931A7.931,7.931,0,0,0,18.506,13.218Z" fill="url(#linear-gradient)"/>
</svg>
