<svg xmlns="http://www.w3.org/2000/svg" width="30" height="24" viewBox="0 0 30 24">
  <g id="loads" transform="translate(-15 -18)">
    <path id="Vector" d="M3,0H19.5a3,3,0,0,1,3,3V13.5a3,3,0,0,1-3,3H3a3,3,0,0,1-3-3V3A3,3,0,0,1,3,0ZM19.5,2.25H3A.75.75,0,0,0,2.25,3V13.5a.75.75,0,0,0,.75.75H19.5a.75.75,0,0,0,.75-.75V3a.75.75,0,0,0-.75-.75ZM3.845,18A3,3,0,0,0,6.75,20.25h13.5a6,6,0,0,0,6-6V6.75A3,3,0,0,0,24,3.845V14.25A3.75,3.75,0,0,1,20.25,18Zm3.75,3.75A3,3,0,0,0,10.5,24H21.375A8.625,8.625,0,0,0,30,15.375V10.5a3,3,0,0,0-2.25-2.906v7.781a6.375,6.375,0,0,1-6.375,6.375Z" transform="translate(15 18)" fill="#fff"/>
  </g>
</svg>
