<svg xmlns="http://www.w3.org/2000/svg" xmlns:xlink="http://www.w3.org/1999/xlink" width="299.521" height="112" viewBox="0 0 299.521 112">
  <defs>
    <clipPath id="clip-path">
      <rect id="Rectangle_1706" data-name="Rectangle 1706" width="57" height="41" transform="translate(0 0.408)" fill="#fff"/>
    </clipPath>
  </defs>
  <g id="Group_3037" data-name="Group 3037" transform="translate(-164 -43)">
    <g id="Group_3034" data-name="Group 3034" transform="translate(-2 161.716)">
      <g id="Group_3030" data-name="Group 3030" transform="translate(331.872 -118.716)">
        <path id="Path_9256" data-name="Path 9256" d="M519.011,281.945l-29.053,8s-1.131,8.6,10.243,11.95c16.219,4.783,26.46,3.076,26.46,3.076V265.617Z" transform="translate(-481.423 -227.279)" fill="#d16319"/>
        <path id="Path_9257" data-name="Path 9257" d="M513.1,247.316l-36.7,17.5L470,275.484l33.288-9.816Z" transform="translate(-470 -216.789)" fill="#f77a0f"/>
        <path id="Path_9258" data-name="Path 9258" d="M576,247.316l36.7,17.5,6.4,10.669-33.289-9.816Z" transform="translate(-530.762 -216.789)" fill="#f77a0f"/>
        <g id="Group_3026" data-name="Group 3026" transform="translate(44.82 38.338)">
          <g id="Group_3025" data-name="Group 3025">
            <g id="Group_3023" data-name="Group 3023" transform="translate(39.387 26.38)">
              <path id="Path_9259" data-name="Path 9259" d="M670.616,327.482l-3.306-.053S668.58,327.511,670.616,327.482Z" transform="translate(-667.31 -327.429)" fill="#f77a0f"/>
            </g>
            <g id="Group_3024" data-name="Group 3024">
              <path id="Path_9260" data-name="Path 9260" d="M635.019,289.067c-6.2,2.436-13.268,2.927-17.307,2.984l11.784.19a48.392,48.392,0,0,1-21.835,6.878,10.48,10.48,0,0,0,4.479-9.175l-29.053-8-7.649-16.328v38.817l-.285.183c-.728.465,1.718.143,2.572.195q.817.049,1.629.082c.93.053,2.013.085,3.246.073C616.648,305.11,643.722,285.649,635.019,289.067Z" transform="translate(-575.02 -265.617)" fill="#f77a0f"/>
            </g>
          </g>
        </g>
        <g id="Group_3029" data-name="Group 3029" transform="translate(17.942)">
          <g id="Group_3027" data-name="Group 3027">
            <path id="Path_9261" data-name="Path 9261" d="M589.979,212.168A55.644,55.644,0,0,1,600.1,192.834C604.035,188.069,592.417,209.969,589.979,212.168Z" transform="translate(-556.717 -185.17)" fill="#004add"/>
            <path id="Path_9262" data-name="Path 9262" d="M607.585,228.587a44.945,44.945,0,0,1,12.376-12.665C624.144,213.137,610,227.445,607.585,228.587Z" transform="translate(-566.809 -198.587)" fill="#004add"/>
            <path id="Path_9263" data-name="Path 9263" d="M534.155,193.823a55.648,55.648,0,0,0,10.116,19.335C548.211,217.923,536.593,196.022,534.155,193.823Z" transform="translate(-524.717 -186.125)" fill="#004add"/>
            <path id="Path_9264" data-name="Path 9264" d="M572.875,175.785a59.713,59.713,0,0,0-.623,24.456C573.573,207.15,574.116,179.35,572.875,175.785Z" transform="translate(-545.997 -175.785)" fill="#004add"/>
            <path id="Path_9265" data-name="Path 9265" d="M512.04,215.564a44.947,44.947,0,0,0,12.377,12.664C528.6,231.013,514.455,216.705,512.04,215.564Z" transform="translate(-512.04 -198.587)" fill="#004add"/>
          </g>
          <g id="Group_3028" data-name="Group 3028" transform="translate(33.263 30)">
            <path id="Path_9266" data-name="Path 9266" d="M590.219,246.079l18.363,9.722,5.834,21.209-15.556-2.916s-1.08-18.563-8.641-23.964A8.225,8.225,0,0,1,590.219,246.079Z" transform="translate(-589.979 -246.079)" fill="#004add"/>
            <path id="Path_9267" data-name="Path 9267" d="M607.585,272.5a28.4,28.4,0,0,0,10.721,3.205C621.471,275.963,609.269,272.391,607.585,272.5Z" transform="translate(-600.071 -261.223)" fill="#fff"/>
            <path id="Path_9268" data-name="Path 9268" d="M607.585,280.048a28.4,28.4,0,0,0,10.721,3.2C621.471,283.51,609.269,279.938,607.585,280.048Z" transform="translate(-600.071 -265.549)" fill="#fff"/>
            <path id="Path_9269" data-name="Path 9269" d="M609.813,288.921a28.4,28.4,0,0,0,10.721,3.205C623.7,292.383,611.5,288.811,609.813,288.921Z" transform="translate(-601.349 -270.636)" fill="#fff"/>
          </g>
        </g>
      </g>
      <path id="Path_9270" data-name="Path 9270" d="M710.957,281.64l3.3,5.2c.521-.559.313-5.56-.18-7.253a.976.976,0,0,1,.172-.822c2.917-2.746,5.861-5.464,8.8-8.188a2.828,2.828,0,0,1,.231-.17c1.805,4.9,3.953,12.7,5.82,17.773a5.993,5.993,0,0,0,1.014-3.5c-.776-5-.62-14.165-1.338-19.172a1.281,1.281,0,0,1,.3-1.124c1.5-1.763,3.03-3.5,4.4-5.362a29.693,29.693,0,0,0,2.8-5.284c.252-1.069.223-1.116-.857-.863a25.765,25.765,0,0,0-4.479,2.661c-1.82,1.6-3.575,3.282-5.317,4.971a2.131,2.131,0,0,1-1.809.688c-5.251-.4-15.426,1.326-20.679.937-.552-.041-.7.539-1.541,1.315,1.852.527,7.758.589,18.137,3.545-.936,1.2-1.8,2.317-2.668,3.427-1.568,2-3.149,3.993-4.7,6.007a.886.886,0,0,1-1.04.39c-1.742-.394-6.948-.024-7.36.435l5.41,2.984Z" transform="translate(-270.882 -338.616)" fill="#004add"/>
      <g id="Group_3031" data-name="Group 3031" transform="translate(327.821 -53.939)">
        <path id="Path_9271" data-name="Path 9271" d="M473.064,388.729a1.525,1.525,0,0,0-1.342-1.658H461.85a1.695,1.695,0,0,0,0,3.315h9.872A1.525,1.525,0,0,0,473.064,388.729Z" transform="translate(-460.509 -361.676)" fill="#277cee"/>
        <path id="Path_9272" data-name="Path 9272" d="M564.43,334.335c-3,1.263-12.786,4.42-19.277,6.145-11.542,2.515-44.338,1.116-50.975.958a8.16,8.16,0,0,0-7.56,4.354h-7.424a1.884,1.884,0,0,0,0,3.764H489.85a2.627,2.627,0,0,1-.1,3.655h-4.065a1.41,1.41,0,0,0,0,2.817H488.9c.6,1.1.014,2.013-.854,2.7h-7.725a1.41,1.41,0,0,0,0,2.817h9.872c5.005,2.817,7.939,3.128,7.939,3.128l36.938-.5H542.6a1.41,1.41,0,0,0,0-2.817h-8.2c-1.439-.182-1.4-2.059.373-2.357a20.249,20.249,0,0,1,3.9-.272h9.872a1.695,1.695,0,0,0,0-3.315h-6.222a2.218,2.218,0,0,1-.711-.858c-.252-.894-.148-1.487,1.351-1.636,1.451-.144,3.634.107,5.684.047,2.544-.074,1.736-2.051,1.894-3.406,2.842-12.72,18.942-16.168,18.942-16.168A51.718,51.718,0,0,0,560.1,344.6c5.459-7.735,14.431-13.418,19.482-17.029C574.848,329.481,567.429,333.072,564.43,334.335Z" transform="translate(-470.191 -327.567)" fill="#277cee"/>
      </g>
      <g id="Mask_Group_2" data-name="Mask Group 2" transform="translate(320 -48.124)" clip-path="url(#clip-path)">
        <g id="Group_3032" data-name="Group 3032" transform="translate(7.821 -5.815)">
          <path id="Path_9271-2" data-name="Path 9271" d="M473.064,388.729a1.525,1.525,0,0,0-1.342-1.658H461.85a1.695,1.695,0,0,0,0,3.315h9.872A1.525,1.525,0,0,0,473.064,388.729Z" transform="translate(-460.509 -361.676)" fill="#004add"/>
          <path id="Path_9272-2" data-name="Path 9272" d="M564.43,334.335c-3,1.263-12.786,4.42-19.277,6.145-11.542,2.515-44.338,1.116-50.975.958a8.16,8.16,0,0,0-7.56,4.354h-7.424a1.884,1.884,0,0,0,0,3.764H489.85a2.627,2.627,0,0,1-.1,3.655h-4.065a1.41,1.41,0,0,0,0,2.817H488.9c.6,1.1.014,2.013-.854,2.7h-7.725a1.41,1.41,0,0,0,0,2.817h9.872c5.005,2.817,7.939,3.128,7.939,3.128l36.938-.5H542.6a1.41,1.41,0,0,0,0-2.817h-8.2c-1.439-.182-1.4-2.059.373-2.357a20.249,20.249,0,0,1,3.9-.272h9.872a1.695,1.695,0,0,0,0-3.315h-6.222a2.218,2.218,0,0,1-.711-.858c-.252-.894-.148-1.487,1.351-1.636,1.451-.144,3.634.107,5.684.047,2.544-.074,1.736-2.051,1.894-3.406,2.842-12.72,18.942-16.168,18.942-16.168A51.718,51.718,0,0,0,560.1,344.6c5.459-7.735,14.431-13.418,19.482-17.029C574.848,329.481,567.429,333.072,564.43,334.335Z" transform="translate(-470.191 -327.567)" fill="#004add"/>
        </g>
      </g>
    </g>
    <g id="Group_3033" data-name="Group 3033" transform="translate(-393.358 367.497)">
      <g id="Group_3035" data-name="Group 3035" transform="translate(557.84 -281.249)">
        <g id="Group_3036" data-name="Group 3036">
          <g id="Group_2980" data-name="Group 2980" transform="translate(0.152 -2)">
            <path id="Path_9214" data-name="Path 9214" d="M64.856,115.243a15.4,15.4,0,0,0,6.758,1.679c2.8,0,4.278-1.16,4.278-2.959,0-1.64-1.279-2.639-4.518-3.759-4.479-1.6-7.438-4.078-7.438-8.038,0-4.6,3.879-8.077,10.2-8.077a15.768,15.768,0,0,1,6.877,1.36l-1.359,4.879a12.606,12.606,0,0,0-5.6-1.28c-2.639,0-3.919,1.24-3.919,2.6,0,1.719,1.48,2.479,5,3.839,4.759,1.759,6.958,4.239,6.958,8.077,0,4.518-3.439,8.357-10.836,8.357a17.574,17.574,0,0,1-7.638-1.68Z" transform="translate(-63.616 -92.89)"/>
            <path id="Path_9215" data-name="Path 9215" d="M138.375,90.735h6.079v11.2h.079a6.559,6.559,0,0,1,2.4-2.039,6.947,6.947,0,0,1,3.158-.76c3.879,0,6.838,2.679,6.838,8.6v11.4h-6.079V108.369c0-2.559-.88-4.319-3.159-4.319a3.212,3.212,0,0,0-3.039,2.159,3.522,3.522,0,0,0-.2,1.32v11.6h-6.079Z" transform="translate(-116.101 -90.535)"/>
            <path id="Path_9216" data-name="Path 9216" d="M219.179,96.542a3.466,3.466,0,1,1,.04,0Zm-3,22.113V99.1h6.078v19.554Z" transform="translate(-170.472 -90.064)"/>
            <path id="Path_9217" data-name="Path 9217" d="M253.425,125.918c0-2.559-.08-4.718-.16-6.558h5.279l.279,2.719h.08a7.6,7.6,0,0,1,6.518-3.159c4.278,0,8.117,3.719,8.117,9.957,0,7.118-4.519,10.477-8.878,10.477a6.076,6.076,0,0,1-5.079-2.239H259.5v9.717h-6.078Zm6.078,4.6a6.315,6.315,0,0,0,.12,1.28,3.679,3.679,0,0,0,3.559,2.879c2.639,0,4.2-2.2,4.2-5.518,0-3.119-1.4-5.478-4.119-5.478a3.818,3.818,0,0,0-3.639,3.079,4.694,4.694,0,0,0-.12,1.08Z" transform="translate(-196.761 -110.323)"/>
            <path id="Path_9218" data-name="Path 9218" d="M333.688,125.918c0-2.559-.08-4.718-.16-6.558h5.279l.28,2.719h.08a7.6,7.6,0,0,1,6.518-3.159c4.278,0,8.117,3.719,8.117,9.957,0,7.118-4.519,10.477-8.877,10.477a6.075,6.075,0,0,1-5.079-2.239h-.079v9.717h-6.078Zm6.078,4.6a6.318,6.318,0,0,0,.12,1.28,3.678,3.678,0,0,0,3.559,2.879c2.639,0,4.2-2.2,4.2-5.518,0-3.119-1.4-5.478-4.119-5.478a3.818,3.818,0,0,0-3.639,3.079,4.7,4.7,0,0,0-.12,1.08Z" transform="translate(-253.11 -110.323)"/>
            <path id="Path_9219" data-name="Path 9219" d="M416.477,96.542a3.466,3.466,0,1,1,.04,0Zm-3,22.113V99.1h6.078v19.554Z" transform="translate(-308.987 -90.064)"/>
            <path id="Path_9220" data-name="Path 9220" d="M450.723,125.6c0-2.439-.08-4.478-.16-6.238h5.278l.28,2.719h.12a7.022,7.022,0,0,1,6.038-3.159c4,0,7,2.679,7,8.437v11.556H463.2V128.077c0-2.519-.88-4.238-3.08-4.238A3.338,3.338,0,0,0,457,126.118a4.384,4.384,0,0,0-.2,1.519v11.276h-6.078Z" transform="translate(-335.276 -110.323)"/>
            <path id="Path_9221" data-name="Path 9221" d="M545.628,136.075c0,3.759-.76,6.838-3,8.8-2.119,1.84-5.038,2.4-7.917,2.4a15.646,15.646,0,0,1-7.038-1.479l1.2-4.639a11.887,11.887,0,0,0,5.678,1.48c2.879,0,5.078-1.52,5.078-5.159v-1.239h-.08a6.325,6.325,0,0,1-5.279,2.519c-4.838,0-8.277-3.919-8.277-9.517,0-6.318,4.039-10.317,8.877-10.317a5.894,5.894,0,0,1,5.358,2.759h.08l.2-2.319h5.279c-.08,1.28-.16,2.919-.16,5.838Zm-6.078-8.757a5.361,5.361,0,0,0-.12-1.12,3.335,3.335,0,0,0-3.279-2.679c-2.239,0-4,2-4,5.558,0,2.919,1.44,5.2,3.959,5.2a3.323,3.323,0,0,0,3.239-2.439,5.6,5.6,0,0,0,.2-1.64Z" transform="translate(-388.233 -110.323)"/>
          </g>
          <text id="invoicing_system" data-name="invoicing system" transform="translate(-0.481 48.752)" font-size="16" font-family="SegoeUI, Segoe UI" letter-spacing="0.17em"><tspan x="0" y="0">invoicing system</tspan></text>
        </g>
      </g>
    </g>
  </g>
</svg>
