<svg xmlns="http://www.w3.org/2000/svg" width="26" height="28" viewBox="0 0 26 28">
  <path id="options" d="M5.751,17.057V1.411a1.377,1.377,0,0,0-.424-.99,1.481,1.481,0,0,0-2.045,0,1.377,1.377,0,0,0-.424.99V17.057A4.325,4.325,0,0,0,.786,18.593a4.087,4.087,0,0,0,0,4.819,4.325,4.325,0,0,0,2.073,1.537V26.6a1.377,1.377,0,0,0,.424.99,1.481,1.481,0,0,0,2.045,0,1.377,1.377,0,0,0,.424-.99V24.949a4.325,4.325,0,0,0,2.073-1.537,4.087,4.087,0,0,0,0-4.819A4.325,4.325,0,0,0,5.751,17.057ZM4.3,22.4a1.481,1.481,0,0,1-.8-.236,1.41,1.41,0,0,1-.533-.628,1.357,1.357,0,0,1-.082-.809,1.386,1.386,0,0,1,.4-.717,1.462,1.462,0,0,1,.741-.383,1.491,1.491,0,0,1,.836.08,1.437,1.437,0,0,1,.649.515,1.365,1.365,0,0,1-.18,1.767A1.471,1.471,0,0,1,4.3,22.4Zm21.7-7a4.106,4.106,0,0,0-.8-2.417,4.327,4.327,0,0,0-2.093-1.529V1.411a1.377,1.377,0,0,0-.424-.99,1.481,1.481,0,0,0-2.045,0,1.377,1.377,0,0,0-.424.99V11.459A4.325,4.325,0,0,0,18.142,13a4.087,4.087,0,0,0,0,4.819,4.325,4.325,0,0,0,2.073,1.537V26.6a1.377,1.377,0,0,0,.424.99,1.481,1.481,0,0,0,2.045,0,1.377,1.377,0,0,0,.424-.99V19.352A4.327,4.327,0,0,0,25.2,17.822a4.106,4.106,0,0,0,.8-2.417Zm-4.339,1.4a1.481,1.481,0,0,1-.8-.236,1.41,1.41,0,0,1-.533-.628,1.357,1.357,0,0,1-.082-.809,1.386,1.386,0,0,1,.4-.717,1.462,1.462,0,0,1,.741-.383,1.491,1.491,0,0,1,.836.08,1.437,1.437,0,0,1,.649.515,1.365,1.365,0,0,1-.18,1.767A1.471,1.471,0,0,1,21.661,16.8ZM17.322,4.21A4.1,4.1,0,0,0,16.7,2.025,4.285,4.285,0,0,0,14.986.474a4.462,4.462,0,0,0-4.5.293A4.23,4.23,0,0,0,9,2.526a4.075,4.075,0,0,0-.319,2.247A4.132,4.132,0,0,0,9.62,6.851a4.341,4.341,0,0,0,1.917,1.305V26.6a1.377,1.377,0,0,0,.424.99,1.481,1.481,0,0,0,2.045,0,1.377,1.377,0,0,0,.424-.99V8.156a4.327,4.327,0,0,0,2.093-1.529A4.106,4.106,0,0,0,17.322,4.21Zm-4.339,1.4a1.481,1.481,0,0,1-.8-.236,1.41,1.41,0,0,1-.533-.628,1.357,1.357,0,0,1-.082-.809,1.386,1.386,0,0,1,.4-.717,1.462,1.462,0,0,1,.741-.383,1.491,1.491,0,0,1,.836.08,1.437,1.437,0,0,1,.649.515,1.365,1.365,0,0,1-.18,1.767A1.471,1.471,0,0,1,12.983,5.609Z" fill="#fff"/>
</svg>
