<svg xmlns="http://www.w3.org/2000/svg" width="120.841" height="120.841" viewBox="0 0 120.841 120.841">
  <path id="qoutation-dull" d="M36.842,0a13.37,13.37,0,0,0-9.378,3.824,12.956,12.956,0,0,0-3.885,9.233V54.469a14.951,14.951,0,0,1,8.842-.923V13.057A4.318,4.318,0,0,1,33.716,9.98,4.457,4.457,0,0,1,36.842,8.7h50.1A4.457,4.457,0,0,1,90.073,9.98a4.319,4.319,0,0,1,1.295,3.078V87.049H64.842v8.7h36.842A19.312,19.312,0,0,0,115.23,90.23a18.714,18.714,0,0,0,5.611-13.336V58.033H100.21V13.057a12.955,12.955,0,0,0-3.885-9.233A13.37,13.37,0,0,0,86.947,0Zm64.842,87.049H100.21V66.738H112V76.893a10.076,10.076,0,0,1-3.021,7.181,10.4,10.4,0,0,1-7.294,2.975ZM56.7,64.944a14.959,14.959,0,0,1,2.8,1.793H78.1a4.457,4.457,0,0,0,3.126-1.275,4.3,4.3,0,0,0,0-6.155A4.456,4.456,0,0,0,78.1,58.033H45.684a4.459,4.459,0,0,0-2.04.487L56.7,64.944ZM45.684,17.41a4.457,4.457,0,0,0-3.126,1.275,4.3,4.3,0,0,0,0,6.155,4.457,4.457,0,0,0,3.126,1.275H78.1a4.457,4.457,0,0,0,3.126-1.275,4.3,4.3,0,0,0,0-6.155A4.457,4.457,0,0,0,78.1,17.41Zm0,20.311A4.457,4.457,0,0,0,42.558,39a4.3,4.3,0,0,0,0,6.155,4.457,4.457,0,0,0,3.126,1.275H78.1a4.457,4.457,0,0,0,3.126-1.275,4.3,4.3,0,0,0,0-6.155A4.457,4.457,0,0,0,78.1,37.721ZM0,101.981V77.92a8.6,8.6,0,0,1,1.324-4.575,8.793,8.793,0,0,1,3.569-3.207L25.524,59.983a8.967,8.967,0,0,1,7.9,0L54.054,70.138a8.793,8.793,0,0,1,3.569,3.207,8.6,8.6,0,0,1,1.324,4.575v24.06a8.6,8.6,0,0,1-1.322,4.579,8.793,8.793,0,0,1-3.571,3.209L33.423,119.925a8.967,8.967,0,0,1-7.9,0L4.893,109.769a8.793,8.793,0,0,1-3.571-3.209A8.6,8.6,0,0,1,0,101.981ZM9.154,78.495a2.861,2.861,0,0,0-.162,2.215,2.916,2.916,0,0,0,1.476,1.679L26.526,90.3V107.36a2.879,2.879,0,0,0,.863,2.052,2.98,2.98,0,0,0,4.168,0,2.879,2.879,0,0,0,.863-2.052V90.3l16.057-7.91a2.915,2.915,0,0,0,1.46-1.68,2.861,2.861,0,0,0-.165-2.2,2.934,2.934,0,0,0-1.695-1.45,2.99,2.99,0,0,0-2.24.146L29.473,85.25,13.11,77.2a2.99,2.99,0,0,0-2.25-.159,2.934,2.934,0,0,0-1.705,1.453Z" fill="rgba(255,255,255,0.5)"/>
</svg>
