<svg xmlns="http://www.w3.org/2000/svg" width="65" height="64" viewBox="0 0 65 64">
  <g id="Group_3064" data-name="Group 3064" transform="translate(-507 0.472)">
    <g id="Group_3065" data-name="Group 3065">
      <g id="Path_9207" data-name="Path 9207" transform="translate(507 -0.472)" fill="#451cff">
        <path d="M 33 62.5 L 32 62.5 C 27.88187026977539 62.5 23.88771057128906 61.69379043579102 20.12848091125488 60.1037712097168 C 16.49674987792969 58.56768035888672 13.23480033874512 56.36830902099609 10.43323993682861 53.5667610168457 C 7.63169002532959 50.76520156860352 5.432320117950439 47.50325012207031 3.896229982376099 43.87152099609375 C 2.306210041046143 40.11228942871094 1.5 36.11812973022461 1.5 32 L 1.5 1.5 L 33 1.5 C 37.11812973022461 1.5 41.11228942871094 2.306210041046143 44.87152099609375 3.896229982376099 C 48.50325012207031 5.432320117950439 51.76520156860352 7.63169002532959 54.5667610168457 10.43323993682861 C 57.36830902099609 13.23480033874512 59.56768035888672 16.49674987792969 61.1037712097168 20.12848091125488 C 62.69379043579102 23.88771057128906 63.5 27.88187026977539 63.5 32 C 63.5 36.11812973022461 62.69379043579102 40.11228942871094 61.1037712097168 43.87152099609375 C 59.56768035888672 47.50325012207031 57.36830902099609 50.76520156860352 54.5667610168457 53.5667610168457 C 51.76520156860352 56.36830902099609 48.50325012207031 58.56768035888672 44.87152099609375 60.1037712097168 C 41.11228942871094 61.69379043579102 37.11812973022461 62.5 33 62.5 Z" stroke="none"/>
        <path d="M 3 3 L 3 32 C 3 35.91629791259766 3.766345977783203 39.7138557434082 5.277732849121094 43.28718948364258 C 6.738201141357422 46.74013519287109 8.829620361328125 49.84182357788086 11.49390029907227 52.50609970092773 C 14.15817642211914 55.17037963867188 17.25986480712891 57.26179885864258 20.71281051635742 58.72226715087891 C 24.2861442565918 60.2336540222168 28.08369827270508 61 32 61 L 33 61 C 36.91629791259766 61 40.7138557434082 60.2336540222168 44.28718948364258 58.72226715087891 C 47.74013519287109 57.26179885864258 50.84182357788086 55.17037963867188 53.50609970092773 52.50609970092773 C 56.17037963867188 49.84182357788086 58.26179885864258 46.74013519287109 59.72226715087891 43.28718948364258 C 61.2336540222168 39.7138557434082 62 35.91629791259766 62 32 C 62 28.08369827270508 61.2336540222168 24.2861442565918 59.72226715087891 20.71281051635742 C 58.26179885864258 17.25986480712891 56.17037963867188 14.15817642211914 53.50609970092773 11.49390029907227 C 50.84182357788086 8.829620361328125 47.74013519287109 6.738201141357422 44.28718948364258 5.277732849121094 C 40.7138557434082 3.766345977783203 36.91629791259766 3 33 3 L 3 3 M 0 0 L 33 0 C 50.67311096191406 0 65 14.32688903808594 65 32 C 65 49.67311096191406 50.67311096191406 64 33 64 L 32 64 C 14.32688903808594 64 0 49.67311096191406 0 32 L 0 0 Z" stroke="none" fill="#fff"/>
      </g>
      <g id="zoom_out" transform="translate(530.513 23.099)">
        <path id="Path_9200" data-name="Path 9200" d="M19.784,18.236l-4.038-4.029a7.678,7.678,0,1,0-1.539,1.539l4.029,4.038a1.1,1.1,0,0,0,1.548,0h0a1.1,1.1,0,0,0,0-1.548ZM9.634,15.094a5.432,5.432,0,1,1,5.432-5.432,5.432,5.432,0,0,1-5.432,5.432Z" transform="translate(-1.924 -1.924)" fill="#fff" stroke="#fff" stroke-width="2"/>
      </g>
    </g>
  </g>
</svg>
