<svg xmlns="http://www.w3.org/2000/svg" width="20.198" height="19.334" viewBox="0 0 20.198 19.334">
  <path id="settings" d="M18.714,15.953a2.5,2.5,0,0,1,2.35-1.266,1.013,1.013,0,0,0,1.013-.831,9.947,9.947,0,0,0,0-3.464,1.013,1.013,0,0,0-1.013-.831,2.5,2.5,0,0,1-2.35-1.266A2.532,2.532,0,0,1,18.8,5.61a1.013,1.013,0,0,0-.213-1.337,10.13,10.13,0,0,0-2.948-1.712,1.013,1.013,0,0,0-1.256.446,2.5,2.5,0,0,1-4.518,0,1.013,1.013,0,0,0-1.256-.486A10.13,10.13,0,0,0,5.667,4.273,1.013,1.013,0,0,0,5.454,5.61a2.532,2.532,0,0,1,.091,2.684,2.5,2.5,0,0,1-2.35,1.266,1.013,1.013,0,0,0-1.013.831,9.947,9.947,0,0,0,0,3.464,1.013,1.013,0,0,0,1.013.831,2.5,2.5,0,0,1,2.35,1.266,2.532,2.532,0,0,1-.091,2.684,1.013,1.013,0,0,0,.213,1.337,10.13,10.13,0,0,0,2.948,1.712A1.013,1.013,0,0,0,9.87,21.24a2.5,2.5,0,0,1,4.518,0,1.013,1.013,0,0,0,1.256.486,10.13,10.13,0,0,0,2.948-1.712,1.013,1.013,0,0,0,.213-1.337A2.532,2.532,0,0,1,18.714,15.953Zm-6.584.223a4.052,4.052,0,1,1,4.052-4.052A4.052,4.052,0,0,1,12.129,16.176Z" transform="translate(-2.03 -2.456)" fill="#fff"/>
</svg>
