<svg xmlns="http://www.w3.org/2000/svg" width="82.646" height="95.962" viewBox="0 0 82.646 95.962">
  <path id="single-user" d="M24.8,77.126,16.537,66.8a4.134,4.134,0,0,1-.723-3.8l8.145-26.471A33.06,33.06,0,0,0-6.621,69.494a4.133,4.133,0,0,1-4.133,4.133,4.133,4.133,0,0,1-4.132-4.133,41.323,41.323,0,0,1,82.646,0,4.132,4.132,0,1,1-8.265,0A33.069,33.069,0,0,0,32.224,36.941L40.242,63a4.131,4.131,0,0,1-.723,3.8l-8.265,10.33a4.131,4.131,0,0,1-6.453,0ZM24.356,63.34l3.672,4.59L31.7,63.34,28.028,51.406ZM5.776,3.378A20.661,20.661,0,1,1,26.438,24.039,20.661,20.661,0,0,1,5.776,3.378Zm8.264,0a12.4,12.4,0,1,0,12.4-12.4A12.4,12.4,0,0,0,14.04,3.378Z" transform="translate(14.886 17.284)" fill="rgba(255,255,255,0.5)"/>
</svg>
