<svg xmlns="http://www.w3.org/2000/svg" width="73.881" height="97.274" viewBox="0 0 73.881 97.274">
  <g id="toatl-invoices-dull" transform="translate(-4923.977 -1892.561)">
    <path id="Subtraction_40" data-name="Subtraction 40" d="M45.146,71.208H5.643C2.531,71.208,0,68.014,0,64.087V21L13.875,7.12h3.562a10.968,10.968,0,0,1,3.047-5.109,7,7,0,0,1,9.819,0A10.967,10.967,0,0,1,33.351,7.12H45.146c3.112,0,5.643,3.195,5.643,7.122V64.087C50.789,68.014,48.257,71.208,45.146,71.208ZM11.286,49.846v7.121H31.037V49.846Zm0-14.242v7.121H39.5V35.6Zm0-14.242v7.121H39.5V21.362ZM25.394,7.12c-1.556,0-2.822,1.6-2.822,3.561s1.266,3.56,2.822,3.56,2.822-1.6,2.822-3.56S26.95,7.12,25.394,7.12Z" transform="translate(4947.069 1918.627)" fill="rgba(255,255,255,0.5)"/>
    <path id="ic_mode_edit_24px" d="M3,39.561v9.62h9.62L40.994,20.808l-9.62-9.62ZM48.433,13.368a2.555,2.555,0,0,0,0-3.617l-6-6a2.555,2.555,0,0,0-3.617,0L34.118,8.443l9.62,9.62,4.695-4.695Z" transform="translate(4920.977 1889.563)" fill="rgba(255,255,255,0.5)"/>
  </g>
</svg>
