<svg xmlns="http://www.w3.org/2000/svg" width="100.432" height="97.946" viewBox="0 0 100.432 97.946">
  <g id="total-visitor-dull" transform="translate(-655.977 513.636)">
    <path id="ic_directions_run_24px" d="M51.179,19.7a9.111,9.111,0,1,0-9.111-9.111A9.138,9.138,0,0,0,51.179,19.7Zm-16.4,63.323,4.556-20.045L48.9,72.092V99.426h9.111V65.258l-9.567-9.111L51.179,42.48A33.358,33.358,0,0,0,76.235,53.869V44.758A22.409,22.409,0,0,1,56.646,33.825L52.09,26.536a9.4,9.4,0,0,0-7.744-4.556c-1.367,0-2.278.456-3.644.456L17.012,32.458V53.869h9.111V38.38l8.2-3.189-7.289,36.9L4.712,67.536,2.89,76.648Z" transform="translate(653.087 -515.116)" fill="rgba(255,255,255,0.5)"/>
    <path id="ic_local_mall_24px" d="M42.193,13.248h-4.9a12.248,12.248,0,1,0-24.5,0H7.9a4.893,4.893,0,0,0-4.875,4.9L3,47.542a4.914,4.914,0,0,0,4.9,4.9H42.193a4.914,4.914,0,0,0,4.9-4.9V18.147A4.914,4.914,0,0,0,42.193,13.248ZM25.046,5.9a7.339,7.339,0,0,1,7.349,7.349H17.7A7.339,7.339,0,0,1,25.046,5.9Zm0,24.5A12.252,12.252,0,0,1,12.8,18.147h4.9a7.349,7.349,0,1,0,14.7,0h4.9A12.252,12.252,0,0,1,25.046,30.395Z" transform="translate(709.317 -473.03)" fill="rgba(255,255,255,0.5)"/>
  </g>
</svg>
