<svg xmlns="http://www.w3.org/2000/svg" width="69.128" height="94.788" viewBox="0 0 69.128 94.788">
  <g id="total-booking-dull" transform="translate(-910 -647)">
    <path id="ic_description_24px" d="M29.608,2H63.751c4.695,0,8.493,3.181,8.493,7.068l.883,80.651c0,3.888-3.8,7.068-8.493,7.068H13.376c-4.695,0-8.536-3.181-8.536-7.068L4,23.205ZM21.072,58.548H55.215V51.479H21.072Zm0-14.137H55.215V37.342H21.072Zm12.8-17.671V7.3L10.4,26.74Z" transform="translate(906 645)" fill="rgba(255,255,255,0.5)"/>
    <path id="ic_check_circle_24px" d="M13.314,2C7.069,2,2,6.2,2,11.369s5.069,9.369,11.314,9.369,11.314-4.2,11.314-9.369S19.56,2,13.314,2ZM11.052,16.054,5.394,11.369l1.6-1.321L11.052,13.4l8.588-7.111,1.6,1.33Z" transform="translate(949.566 717.071)" fill="#fff"/>
  </g>
</svg>
