<svg id="Vector_Stroke_" data-name="Vector (Stroke)" xmlns="http://www.w3.org/2000/svg" xmlns:xlink="http://www.w3.org/1999/xlink" width="64.318" height="66.268" viewBox="0 0 64.318 66.268">
  <defs>
    <linearGradient id="linear-gradient" y1="0.048" x2="1" y2="1" gradientUnits="objectBoundingBox">
      <stop offset="0" stop-color="#f9d423"/>
      <stop offset="1" stop-color="#e65c00"/>
    </linearGradient>
  </defs>
  <path id="Vector_Stroke_2" data-name="Vector (Stroke)" d="M10.194,4.852a16.079,16.079,0,0,1,23.021,0,16.775,16.775,0,0,1,0,23.429,16.363,16.363,0,0,1-1.746,1.541,20.86,20.86,0,0,1,5.79,4.193l1.373,1.411L34.3,44.181a9.372,9.372,0,0,1,4.132,1.156L54.261,29.229,64.319,39.465l-3.837,3.9-6.221-6.331-2.946,3,6.221,6.331-3.837,3.9-6.221-6.331-5.208,5.3a9.8,9.8,0,0,1-1.636,11.431,9.382,9.382,0,0,1-13.433.005,9.615,9.615,0,0,1-.68-.77l-3.146,6.36H0V49.7c0-8.953,4.745-16.358,11.939-19.879a16.364,16.364,0,0,1-1.745-1.54,16.775,16.775,0,0,1,0-23.429ZM21.7,27.612a10.757,10.757,0,0,0,7.674-3.235,11.184,11.184,0,0,0,0-15.619,10.719,10.719,0,0,0-15.347,0,11.184,11.184,0,0,0,0,15.619A10.757,10.757,0,0,0,21.7,27.612Zm0,5.522c-9.354,0-16.278,7.047-16.278,16.567V60.745H20.033l4.778-9.658a9.735,9.735,0,0,1,1.51-3.052l5.654-11.429A16.278,16.278,0,0,0,21.7,33.134Zm8.216,19.9a4.2,4.2,0,0,0,1.117,3.733,4.022,4.022,0,0,0,5.759,0,4.2,4.2,0,0,0,0-5.861,4.022,4.022,0,0,0-5.759,0q-.067.069-.131.14Z" fill="url(#linear-gradient)"/>
</svg>
