<svg xmlns="http://www.w3.org/2000/svg" width="31.891" height="32.394" viewBox="0 0 31.891 32.394">
  <path id="Vector" d="M9.723,0a3.5,3.5,0,0,0-3.5,3.5V14.6a3.889,3.889,0,0,1,2.334-.247V3.5A1.167,1.167,0,0,1,9.723,2.334H22.946A1.167,1.167,0,0,1,24.113,3.5V23.335h-7v2.334h9.723a5.056,5.056,0,0,0,5.056-5.056V15.557H26.447V3.5a3.5,3.5,0,0,0-3.5-3.5ZM26.835,23.335h-.389V17.89h3.111v2.722a2.722,2.722,0,0,1-2.722,2.722ZM14.963,17.41a3.941,3.941,0,0,1,.739.481h4.911a1.167,1.167,0,0,0,0-2.334H12.057a1.162,1.162,0,0,0-.538.131l3.444,1.722ZM12.057,4.667a1.167,1.167,0,0,0,0,2.334h8.556a1.167,1.167,0,0,0,0-2.334Zm0,5.445a1.167,1.167,0,0,0,0,2.334h8.556a1.167,1.167,0,0,0,0-2.334ZM0,27.338v-6.45A2.334,2.334,0,0,1,1.291,18.8L6.736,16.08a2.334,2.334,0,0,1,2.085,0L14.266,18.8a2.334,2.334,0,0,1,1.291,2.086v6.45a2.334,2.334,0,0,1-1.291,2.088L8.821,32.148a2.334,2.334,0,0,1-2.085,0L1.291,29.426A2.334,2.334,0,0,1,0,27.338Zm2.416-6.3a.778.778,0,0,0,.347,1.044L7,24.206V28.78a.778.778,0,1,0,1.556,0V24.206l4.238-2.12a.778.778,0,0,0-.7-1.391L7.778,22.853,3.46,20.694a.778.778,0,0,0-1.044.347Z" fill="#fff"/>
</svg>
