<svg id="Vector" xmlns="http://www.w3.org/2000/svg" xmlns:xlink="http://www.w3.org/1999/xlink" width="68.217" height="52.624" viewBox="0 0 68.217 52.624">
  <defs>
    <linearGradient id="linear-gradient" y1="0.204" x2="1" y2="1" gradientUnits="objectBoundingBox">
      <stop offset="0" stop-color="#38ef7d"/>
      <stop offset="1" stop-color="#11998e"/>
    </linearGradient>
  </defs>
  <path id="Vector-2" data-name="Vector" d="M42.18,0a15.506,15.506,0,0,0-4.112.467A14.513,14.513,0,0,0,33.728,2.5,14.7,14.7,0,0,0,28.322.233,43.11,43.11,0,0,0,21.851.158C19.1.216,17.3,1.657,14.389,2.811A31.154,31.154,0,0,1,2.436,5.074H0V29.113l1.372.7,4.49,2.265,15.99,18.262.076.077A8.184,8.184,0,0,0,28.4,52.6a12.58,12.58,0,0,0,5.862-1.793c3.6-2.225,13.4-9.211,13.4-9.211l.229-.157.153-.155a8.784,8.784,0,0,0,2.132-4.136l9.363-4.84,7-2.418,1.676-.549V5.074H65.78A30.611,30.611,0,0,1,53.828,2.731C50.914,1.565,49.145.139,46.363.079,44.877.049,43.527-.009,42.177,0Zm.073,5c1.1-.01,2.363.05,3.961.077.256.01,2.6,1.034,5.862,2.343A37.429,37.429,0,0,0,63.344,9.834V25.756l-5.635,1.953h-.151l-.153.075L50.022,31.61A8.913,8.913,0,0,0,48.2,28.488l-.153-.235L37.687,15.221l-1.523-1.953-1.905,1.561-6.546,5.465c-2.2,1.561-3.978,1.111-5.786.235a4.541,4.541,0,0,1-.914-.624L32.13,10.458l.151-.155c3.3-3.357,5.331-4.518,7.08-5A11.028,11.028,0,0,1,42.255,5Zm-16.974.077a17.33,17.33,0,0,1,2.436.077A10.9,10.9,0,0,1,29.7,6.01c-.249.235-.429.37-.687.624l-.151.157L15.534,18.106l-2.056,1.718L15.3,21.775A16.166,16.166,0,0,0,19.8,25.054a10.406,10.406,0,0,0,10.734-.624l.153-.157L35.4,20.294,44.39,31.61l.076.157.076.075a4.192,4.192,0,0,1,0,5.857c-.019.017.019.057,0,.075s-.341.207-.38.237l-3.2-4.451L37,36.528l3.123,4.291c-1.267.879-1.837,1.339-3.2,2.265l-3.272-4.528-3.961,2.967,3.123,4.291c-.278.175-.848.567-1.067.7a8.63,8.63,0,0,1-3.579,1.091,3.928,3.928,0,0,1-2.663-.624l-.076-.077L9.139,28.411l-.3-.392L4.873,25.991V9.834a38.463,38.463,0,0,0,11.268-2.34C19.4,6.215,21.72,5.161,22,5.151l3.274-.077Z" fill="url(#linear-gradient)"/>
</svg>
