<svg id="Vector" xmlns="http://www.w3.org/2000/svg" xmlns:xlink="http://www.w3.org/1999/xlink" width="66.268" height="66.268" viewBox="0 0 66.268 66.268">
  <defs>
    <linearGradient id="linear-gradient" y1="0.048" x2="1" y2="1" gradientUnits="objectBoundingBox">
      <stop offset="0" stop-color="#f2709c"/>
      <stop offset="1" stop-color="#ff9472"/>
    </linearGradient>
  </defs>
  <path id="Vector-2" data-name="Vector" d="M20.2,0a7.332,7.332,0,0,0-5.143,2.1A7.1,7.1,0,0,0,12.93,7.16V29.87a8.2,8.2,0,0,1,4.849-.506V7.16a2.368,2.368,0,0,1,.71-1.688,2.444,2.444,0,0,1,1.714-.7H47.68a2.444,2.444,0,0,1,1.714.7A2.368,2.368,0,0,1,50.1,7.16V47.736H35.558V52.51h20.2a10.59,10.59,0,0,0,7.429-3.029,10.262,10.262,0,0,0,3.077-7.314V31.824H54.954V7.16A7.1,7.1,0,0,0,52.823,2.1,7.332,7.332,0,0,0,47.68,0ZM55.762,47.736h-.808V36.6h6.465v5.569a5.526,5.526,0,0,1-1.657,3.938,5.7,5.7,0,0,1-4,1.631ZM31.091,35.615a8.2,8.2,0,0,1,1.535.983H42.832a2.444,2.444,0,0,0,1.714-.7,2.361,2.361,0,0,0,0-3.375,2.444,2.444,0,0,0-1.714-.7H25.052a2.446,2.446,0,0,0-1.118.267l7.157,3.523ZM25.052,9.547a2.444,2.444,0,0,0-1.714.7,2.361,2.361,0,0,0,0,3.375,2.444,2.444,0,0,0,1.714.7H42.832a2.444,2.444,0,0,0,1.714-.7,2.361,2.361,0,0,0,0-3.375,2.444,2.444,0,0,0-1.714-.7Zm0,11.139a2.444,2.444,0,0,0-1.714.7,2.361,2.361,0,0,0,0,3.375,2.444,2.444,0,0,0,1.714.7H42.832a2.444,2.444,0,0,0,1.714-.7,2.361,2.361,0,0,0,0-3.375,2.444,2.444,0,0,0-1.714-.7ZM0,55.925V42.731a4.719,4.719,0,0,1,.726-2.509,4.822,4.822,0,0,1,1.957-1.759L14,32.894a4.917,4.917,0,0,1,4.332,0l11.314,5.569A4.822,4.822,0,0,1,31.6,40.222a4.719,4.719,0,0,1,.726,2.509V55.925a4.719,4.719,0,0,1-.725,2.511,4.822,4.822,0,0,1-1.958,1.76L18.329,65.765a4.917,4.917,0,0,1-4.332,0L2.683,60.2a4.822,4.822,0,0,1-1.958-1.76A4.719,4.719,0,0,1,0,55.925ZM5.02,43.046a1.569,1.569,0,0,0-.089,1.215,1.6,1.6,0,0,0,.81.921l8.806,4.338v9.356A1.579,1.579,0,0,0,15.02,60a1.634,1.634,0,0,0,2.286,0,1.579,1.579,0,0,0,.473-1.125V49.519l8.806-4.338a1.6,1.6,0,0,0,.8-.921,1.569,1.569,0,0,0-.091-1.209,1.609,1.609,0,0,0-.929-.8,1.64,1.64,0,0,0-1.229.08L16.163,46.75,7.189,42.333a1.639,1.639,0,0,0-1.234-.087,1.609,1.609,0,0,0-.935.8Z" fill="url(#linear-gradient)"/>
</svg>
