<svg id="Component_22_2" data-name="Component 22 – 2" xmlns="http://www.w3.org/2000/svg" xmlns:xlink="http://www.w3.org/1999/xlink" width="70.386" height="68.643" viewBox="0 0 70.386 68.643">
  <defs>
    <linearGradient id="linear-gradient" x1="-0.129" y1="0.768" x2="1.421" y2="1" gradientUnits="objectBoundingBox">
      <stop offset="0" stop-color="#a8e063"/>
      <stop offset="1" stop-color="#56ab2f"/>
    </linearGradient>
  </defs>
  <path id="ic_directions_run_24px" d="M36.733,14.251a6.385,6.385,0,1,0-6.385-6.385A6.4,6.4,0,0,0,36.733,14.251ZM25.239,58.629l3.193-14.048,6.7,6.385V70.123h6.385V46.178l-6.7-6.385,1.916-9.578A23.379,23.379,0,0,0,54.293,38.2V31.811a15.705,15.705,0,0,1-13.729-7.663L37.371,19.04a6.585,6.585,0,0,0-5.428-3.193c-.958,0-1.6.319-2.554.319l-16.6,7.024V38.2h6.385V27.341l5.747-2.235L19.811,50.967,4.167,47.774,2.89,54.16Z" transform="translate(-2.89 -1.48)" fill="url(#linear-gradient)"/>
  <path id="ic_local_mall_24px" d="M30.468,9.584H27.034a8.584,8.584,0,1,0-17.167,0H6.433a3.429,3.429,0,0,0-3.416,3.433L3,33.618a3.444,3.444,0,0,0,3.433,3.433H30.468A3.444,3.444,0,0,0,33.9,33.618v-20.6A3.444,3.444,0,0,0,30.468,9.584ZM18.451,4.433a5.143,5.143,0,0,1,5.15,5.15H13.3A5.143,5.143,0,0,1,18.451,4.433Zm0,17.167a8.587,8.587,0,0,1-8.584-8.584H13.3a5.15,5.15,0,0,0,10.3,0h3.433A8.587,8.587,0,0,1,18.451,21.6Z" transform="translate(36.485 28.159)" fill="url(#linear-gradient)"/>
</svg>
