<svg id="_41.头像-图标头像" data-name="41.头像-图标头像" xmlns="http://www.w3.org/2000/svg" width="36" height="36" viewBox="0 0 36 36">
  <rect id="Rectangle_354" data-name="Rectangle 354" width="36" height="36" rx="18" fill="#fff"/>
  <g id="_1.Bace基础_3.Icon图标_用户_user" data-name="1.Bace基础/3.Icon图标/用户/user" transform="translate(8 8)">
    <rect id="Rectangle_4117" data-name="Rectangle 4117" width="20" height="20" transform="translate(0)" fill="#fff"/>
    <path id="Union" d="M15.625,16.25h-15A.626.626,0,0,1,0,15.625V12.781a1.206,1.206,0,0,1,.671-1.09,17.271,17.271,0,0,1,14.908,0,1.207,1.207,0,0,1,.671,1.09v2.844A.626.626,0,0,1,15.625,16.25Zm-7.5-5A15.925,15.925,0,0,0,1.25,12.8V15H15V12.8A15.932,15.932,0,0,0,8.125,11.25Zm0-2.5A4.375,4.375,0,1,1,12.5,4.375,4.38,4.38,0,0,1,8.125,8.75Zm0-7.5A3.125,3.125,0,1,0,11.25,4.375,3.128,3.128,0,0,0,8.125,1.25Z" transform="translate(1.875 1.875)" fill="#022299"/>
  </g>
</svg>
