<svg id="Component_3" data-name="Component 3" xmlns="http://www.w3.org/2000/svg" width="60" height="60" viewBox="0 0 60 60">
  <rect id="Rectangle_341" data-name="Rectangle 341" width="60" height="60" fill="rgba(255,255,255,0)"/>
  <path id="users" d="M33.561,14.222a1.047,1.047,0,0,1-.658.222,1.085,1.085,0,0,1-.49-.117A1.1,1.1,0,0,1,32.026,14a7.1,7.1,0,0,0-2.512-2.132,7,7,0,0,0-3.191-.756,1.09,1.09,0,0,1-.776-.325,1.121,1.121,0,0,1,0-1.571,1.09,1.09,0,0,1,.776-.325,3.26,3.26,0,0,0,1.762-.521,3.32,3.32,0,0,0,1.213-1.4,3.368,3.368,0,0,0-.444-3.543,3.289,3.289,0,0,0-1.518-1.044,3.262,3.262,0,0,0-3.414.889,3.349,3.349,0,0,0-.833,1.657,1.12,1.12,0,0,1-.149.419,1.105,1.105,0,0,1-.3.326,1.085,1.085,0,0,1-1.249.017,1.1,1.1,0,0,1-.308-.318,1.123,1.123,0,0,1-.146-.861,5.59,5.59,0,0,1,1.059-2.371A5.5,5.5,0,0,1,24,.521,5.422,5.422,0,0,1,28.994.7a5.512,5.512,0,0,1,1.888,1.765,5.6,5.6,0,0,1-.857,7.183,9.316,9.316,0,0,1,3.756,3.014,1.119,1.119,0,0,1-.219,1.555ZM25.884,23.4a1.138,1.138,0,0,1,.045.848,1.12,1.12,0,0,1-.552.638A1.261,1.261,0,0,1,24.9,25a1.1,1.1,0,0,1-.581-.171,1.12,1.12,0,0,1-.406-.454,7.757,7.757,0,0,0-2.837-3.187,7.607,7.607,0,0,0-8.145,0,7.757,7.757,0,0,0-2.837,3.187,1.11,1.11,0,0,1-.259.346,1.085,1.085,0,0,1-1.208.168,1.121,1.121,0,0,1-.552-.638,1.138,1.138,0,0,1,.045-.848A9.944,9.944,0,0,1,13,18.624,6.668,6.668,0,0,1,10.7,15.271a6.749,6.749,0,0,1,.065-4.079,6.66,6.66,0,0,1,2.4-3.277,6.512,6.512,0,0,1,7.668,0,6.66,6.66,0,0,1,2.4,3.277,6.749,6.749,0,0,1,.065,4.079A6.668,6.668,0,0,1,21,18.624,9.944,9.944,0,0,1,25.884,23.4ZM17,17.777a4.347,4.347,0,0,0,2.437-.749,4.432,4.432,0,0,0,1.616-1.994,4.486,4.486,0,0,0-.951-4.843,4.356,4.356,0,0,0-6.75.673,4.477,4.477,0,0,0,.55,5.607A4.373,4.373,0,0,0,17,17.777ZM8.774,10a1.118,1.118,0,0,0-.321-.786,1.09,1.09,0,0,0-.776-.325,3.26,3.26,0,0,1-1.762-.521A3.32,3.32,0,0,1,4.7,6.973,3.368,3.368,0,0,1,5.147,3.43,3.289,3.289,0,0,1,6.665,2.386a3.262,3.262,0,0,1,3.414.889,3.349,3.349,0,0,1,.833,1.657,1.12,1.12,0,0,0,.149.419,1.106,1.106,0,0,0,.3.326,1.085,1.085,0,0,0,1.249.017,1.1,1.1,0,0,0,.308-.318,1.123,1.123,0,0,0,.146-.861,5.59,5.59,0,0,0-1.059-2.371A5.5,5.5,0,0,0,10,.521,5.422,5.422,0,0,0,5.006.7,5.512,5.512,0,0,0,3.119,2.469a5.6,5.6,0,0,0,.857,7.183A9.316,9.316,0,0,0,.219,12.666a1.121,1.121,0,0,0,.219,1.555,1.047,1.047,0,0,0,.658.222,1.085,1.085,0,0,0,.49-.117A1.1,1.1,0,0,0,1.974,14a7.1,7.1,0,0,1,2.512-2.132,7,7,0,0,1,3.191-.756,1.09,1.09,0,0,0,.776-.325A1.118,1.118,0,0,0,8.774,10Z" transform="translate(13 17)" fill="#fff"/>
</svg>
