<svg xmlns="http://www.w3.org/2000/svg" width="30" height="30" viewBox="0 0 30 30">
  <path id="Vector" d="M9.146,0A3.319,3.319,0,0,0,6.818.949a3.216,3.216,0,0,0-.964,2.292V13.523a3.712,3.712,0,0,1,2.2-.229V3.242a1.072,1.072,0,0,1,.321-.764,1.106,1.106,0,0,1,.776-.316H21.585a1.106,1.106,0,0,1,.776.316,1.072,1.072,0,0,1,.321.764V21.611H16.1v2.161h9.146A4.794,4.794,0,0,0,28.607,22.4,4.646,4.646,0,0,0,30,19.09V14.407H24.878V3.242A3.216,3.216,0,0,0,23.914.949,3.319,3.319,0,0,0,21.585,0Zm16.1,21.611h-.366V16.568H27.8V19.09a2.5,2.5,0,0,1-.75,1.783,2.582,2.582,0,0,1-1.811.738ZM14.075,16.123a3.714,3.714,0,0,1,.7.445h4.62a1.106,1.106,0,0,0,.776-.316,1.069,1.069,0,0,0,0-1.528,1.106,1.106,0,0,0-.776-.316H11.341a1.107,1.107,0,0,0-.506.121l3.24,1.595Zm-2.734-11.8a1.106,1.106,0,0,0-.776.316,1.069,1.069,0,0,0,0,1.528,1.106,1.106,0,0,0,.776.316H19.39a1.106,1.106,0,0,0,.776-.316,1.069,1.069,0,0,0,0-1.528,1.106,1.106,0,0,0-.776-.316Zm0,5.043a1.106,1.106,0,0,0-.776.316,1.069,1.069,0,0,0,0,1.528,1.106,1.106,0,0,0,.776.316H19.39a1.106,1.106,0,0,0,.776-.316,1.069,1.069,0,0,0,0-1.528,1.106,1.106,0,0,0-.776-.316ZM0,25.318V19.345a2.136,2.136,0,0,1,.329-1.136,2.183,2.183,0,0,1,.886-.8l5.122-2.521a2.226,2.226,0,0,1,1.961,0l5.122,2.521a2.183,2.183,0,0,1,.886.8,2.136,2.136,0,0,1,.329,1.136v5.973a2.136,2.136,0,0,1-.328,1.137,2.183,2.183,0,0,1-.886.8L8.3,29.772a2.226,2.226,0,0,1-1.961,0L1.215,27.251a2.183,2.183,0,0,1-.886-.8A2.136,2.136,0,0,1,0,25.318Zm2.273-5.831a.71.71,0,0,0-.04.55.724.724,0,0,0,.367.417l3.986,1.964v4.236a.715.715,0,0,0,.214.509.74.74,0,0,0,1.035,0,.715.715,0,0,0,.214-.509V22.418l3.986-1.964a.724.724,0,0,0,.362-.417.71.71,0,0,0-.041-.547.728.728,0,0,0-.421-.36.742.742,0,0,0-.556.036l-4.062,2-4.062-2a.742.742,0,0,0-.559-.04.728.728,0,0,0-.423.361Z" fill="#6f6f6f"/>
</svg>
